<?xml version="1.0" encoding="utf-8"?>
<!-- Generator: Adobe Illustrator 25.0.0, SVG Export Plug-In . SVG Version: 6.00 Build 0)  -->
<svg version="1.1" xmlns="http://www.w3.org/2000/svg" xmlns:xlink="http://www.w3.org/1999/xlink" x="0px" y="0px"
	 viewBox="0 0 377 217" style="enable-background:new 0 0 377 217;" xml:space="preserve">
<style type="text/css">
	.st0{fill:#002E4F;}
	.st1{fill:#00A4E2;}
	.st2{fill:#E1F3F6;}
	.st3{fill:#008DC4;}
	.st4{fill:#00AFE2;}
	.st5{fill:#006091;}
	.st6{fill:#0076AD;}
	.st7{fill:#00D2FD;}
	.st8{fill:#00396A;}
	.st9{fill:none;stroke:#20C6F0;stroke-width:7.6539;stroke-linecap:round;stroke-miterlimit:10;}
	.st10{fill:#0086CF;}
	.st11{fill:#0089E0;}
	.st12{fill:#CDE5E8;}
	.st13{fill:#F6EE9E;}
	.st14{fill:#F8FDFF;}
	.st15{fill:none;stroke:#DDDD67;stroke-width:0.8679;stroke-miterlimit:10;}
	.st16{fill:none;stroke:#DDDD67;stroke-width:0.755;stroke-miterlimit:10;}
	.st17{fill:#009EE7;}
</style>
<g id="OBJECTS">
	<g>
		<path class="st0" d="M287.3,192.3c-2.5,3.2-5.4,5.7-4.8,6.8c0,0,1.3,1,5,1c6.3,0,12.5-0.5,11.5-1.1c-1.4-0.9-5.5-1.2-9.4-2.6
			c-1-0.3,2.1-2.2,1.3-2.5C289.1,193.2,287.8,192.7,287.3,192.3z"/>
		<path class="st0" d="M352.2,198.9c0,0,0.8,1.2,4,1.2c5.5,0,11.1-0.7,10.3-1.3c-1.2-0.8-10.8-2.8-10.8-2.8l-2.1-2.7l-3.6,2
			L352.2,198.9z"/>
		<g>
			<path class="st1" d="M335,118.6c-3.9,0-6.9-0.8-7.1-0.8c-2-0.6-3.2-2.7-2.7-4.7c0.6-2,2.7-3.2,4.7-2.7c0.1,0,8.7,2.2,13.8-2.1
				c3.4-2.9,4.6-8.3,3.8-16.2l-0.3-2.5l7.7-4.4c1.8-1,4.2-0.4,5.2,1.4c1,1.8,0.4,4.2-1.4,5.2l-3.4,1.9c0.5,9.2-1.7,16-6.7,20.3
				C344.4,117.7,339.1,118.6,335,118.6z"/>
		</g>
		<g>
			<path class="st2" d="M348.2,97.3c-0.1,5.6-1.6,9.6-4.4,12c-5.5,4.7-14.9,2.3-15.1,2.3c-2.2-0.6-4.5,0.7-5.1,3
				c-0.6,2.2,0.7,4.5,2.9,5.2c0.3,0.1,3.5,1.7,7.8,1.5c16.3-0.6,26.1-14.6,26.3-22.8L348.2,97.3z"/>
		</g>
		<g>
			<path class="st3" d="M325.8,77.8c-1.5-0.7-2.9-1.4-4.3-2.1c-13.5,7.7-30.7,17.5-31.1,17.9c0,0,8.6,13.6,9.1,14.2
				c0.4,0.4,21.6-14.9,36.9-25.9C332.9,80.5,329.3,79.4,325.8,77.8z"/>
			<path class="st4" d="M326,77.4c3.5,1.6,7.2,2.7,10.8,4.1c8.4-6.1,14.9-10.8,14.9-10.8l-14.4-4c0,0-6.9,3.9-15.4,8.8
				C323.3,76.2,324.7,76.8,326,77.4z"/>
			<polygon class="st5" points="301.2,59.5 309.7,82.5 326.3,88.5 305.3,50.2 			"/>
			<polygon class="st5" points="327.2,94.2 314.9,94.2 325.8,113.2 342.5,120.2 			"/>
			<path class="st6" d="M342.5,120.2l-9.8-16.7l-41.8,24.5l-8.2-14l5.2-83.3l18.8-11l33.8,57.6l11.4-6.7l9.5,16.1l-11.4,6.7
				l9.8,16.7L342.5,120.2z M304.6,55.6l-1.1,0.6l-2.9,44.5l22.6-13.3L304.6,55.6z"/>
			<polygon class="st3" points="268.8,110.3 282.7,114.1 290.9,128.1 276.2,124.4 			"/>
			<polygon class="st4" points="268.8,110.3 282.7,114.1 287.9,30.8 275.1,27.7 			"/>
			<polygon class="st7" points="275.1,27.7 287.9,30.8 306.6,19.8 293.7,16 			"/>
		</g>
		<path class="st0" d="M303.1,143.5c0,0,2,22,2,29.7c0,0-16,12.5-20,19c1.7,1.3,5,3,7.2,2.9c10.7-10.2,22.4-17.5,22.4-17.5
			s5.1-14.7,6.6-27.1L303.1,143.5z"/>
		<path class="st2" d="M314.5,144.5c3.6,0,7.3-0.6,10.4-2.3c-1-4.4,1.2-17.4,4-24.3c0,0,2.2-4.8,0.7-6.3c-5.7-5.5-10.6-5-12.1-5.1
			c-5.2,4.4-15,17.5-14.6,34.7C305.6,144,311,144.5,314.5,144.5z"/>
		<path class="st8" d="M349.8,195.9c2.1-0.6,4.1-1.5,5.4-3.3c-6.2-10-28.9-46.9-30.1-49.8c0-0.1-0.1-0.2-0.1-0.2
			c-3.3,1.8-7.3,2.4-11.2,2.3c-3.4-0.1-8.2-0.6-11-3.1c0,0.2,0,0.4,0,0.5c0.5,9.6,32.4,41.7,45,54
			C348.6,196.3,349.2,196.1,349.8,195.9z"/>
		<g>
			<path class="st1" d="M283.9,134.5c-0.9,0-1.7-0.1-2.6-0.4c-1.7-0.6-3.9-2-5-5.5c-0.6-2,0.6-4.2,2.6-4.8c2-0.6,4.2,0.6,4.8,2.6
				c0.1,0.2,0.1,0.4,0.2,0.5c0.4,0,1.9-0.1,5.6-2.3c3.3-1.9,7.2-4.8,11-7.6c6.4-4.7,12.4-9.2,17.4-10.7c2-0.6,4.2,0.5,4.8,2.5
				c0.6,2-0.5,4.2-2.5,4.8c-3.8,1.2-9.5,5.5-15.1,9.6C296.9,129.2,289.7,134.5,283.9,134.5z"/>
		</g>
		<g>
			<path class="st1" d="M291.1,131.7c-0.5-2.3-1-4.7-2.4-6.6c-3.1,1.7-4.4,1.8-4.8,1.8c0-0.1-0.1-0.2-0.2-0.5
				c-0.6-2-2.7-3.2-4.8-2.6c-2,0.6-3.2,2.7-2.6,4.8c1.1,3.6,3.3,5,5,5.5c0.8,0.3,1.7,0.4,2.6,0.4c2.2,0,4.7-0.8,7.3-2.1
				C291.2,132.1,291.1,131.9,291.1,131.7z"/>
			<path class="st2" d="M322.7,108.7c-0.6-2-2.8-3.1-4.8-2.5c-5,1.6-11,6-17.4,10.7c-3.8,2.8-7.7,5.7-11,7.6
				c-0.2,0.1-0.3,0.2-0.4,0.2c1.4,1.9,3.9,11.2,4,11.4c4.1-2.1,23.5-16.9,27.7-21.4C322.3,113.3,323.3,110.7,322.7,108.7z"/>
		</g>
		<g>
			<path class="st1" d="M278.5,131.4c-0.2,0-0.5-0.1-0.7-0.2c-3-2.1-4.6-6.3-4.6-6.5c-0.2-0.6,0.1-1.2,0.7-1.4
				c0.6-0.2,1.2,0.1,1.4,0.7l0,0c0,0,1.4,3.7,3.8,5.4c0.5,0.4,0.6,1.1,0.3,1.6C279.2,131.3,278.9,131.4,278.5,131.4z"/>
		</g>
		<g>
			<path class="st1" d="M278.5,128.7c-0.4,0-0.7-0.2-0.9-0.5c-1.4-2-2.6-6.9-2.7-7.4c-0.1-0.6,0.2-1.2,0.8-1.4
				c0.6-0.1,1.2,0.2,1.4,0.8c0.3,1.4,1.4,5.2,2.4,6.6c0.4,0.5,0.2,1.2-0.3,1.6C279,128.6,278.8,128.7,278.5,128.7z"/>
		</g>
		<g>
			<path class="st1" d="M280.1,128c-0.4,0-0.9-0.3-1-0.7c-1-2.5-1.4-7.8-1.5-8.1c0-0.6,0.4-1.2,1-1.2c0.6-0.1,1.2,0.4,1.2,1
				c0.1,1.4,0.5,5.5,1.3,7.4c0.2,0.6,0,1.2-0.6,1.5C280.4,128,280.2,128,280.1,128z"/>
		</g>
		<g>
			<path class="st1" d="M281.8,127.5c-0.5,0-1-0.3-1.1-0.8c-0.7-2.8-0.1-5.6,0-5.7c0.1-0.6,0.8-1,1.4-0.8c0.6,0.1,1,0.7,0.8,1.4
				c0,0.1-0.5,2.4,0,4.6c0.2,0.6-0.2,1.2-0.8,1.4C282,127.5,281.9,127.5,281.8,127.5z"/>
		</g>
		<g>
			<path class="st1" d="M327,114.8c-0.5,0-1-0.1-1.5-0.3c-1.8-0.8-2.6-3-1.7-4.8c0.9-1.9,2.5-3.8,2.7-4c1.3-1.5,3.6-1.7,5.1-0.4
				c1.5,1.3,1.7,3.6,0.4,5.1l0,0c-0.5,0.5-1.3,1.7-1.7,2.5C329.7,114.1,328.4,114.8,327,114.8z"/>
		</g>
		<g>
			<path class="st10" d="M327.5,113c0.4,0.5,0.9,0.9,1.3,1.3c0.6-0.4,1.1-0.9,1.4-1.5c0.4-0.8,1.2-1.9,1.7-2.5
				c1.3-1.5,1.1-3.8-0.4-5.1c-1.5-1.3-3.8-1.1-5.1,0.4c-0.1,0.1-0.4,0.4-0.7,0.9C325.7,108.9,326,111.3,327.5,113z"/>
		</g>
		<g>
			<path class="st1" d="M339.4,109c-1.4,3.5-5.4,5.1-8.9,3.7l0,0c-3.5-1.4-5.1-5.4-3.7-8.9l1.8-4.4c1.4-3.5,5.4-5.1,8.9-3.7l0,0
				c3.5,1.4,5.1,5.4,3.7,8.9L339.4,109z"/>
		</g>
		<path class="st8" d="M327.5,103.3c-0.6,2.3-3.9,1.6-5.2,0.4c-1.7-1.7-2.8-6.4,1.1-6.2c-2.8-4.2,6.6-8.7,7.6-3.9
			c0.7-1.2,1.5-2.4,3.1-2.5c1.2-0.1,3.2,0.8,3.1,2.3c1.8-1.4,4.3-1.3,6,0.1c0.6,0.4,1.6,1.4,1.1,2.2c-0.3,0.4-1.7,0.5-2.2,0.7
			c0.8-0.4,4.2,0.4,3.5,1.8c-0.3,0.7-1.9,0.1-2.4-0.1c0,0,0,0.2,0,0.1c1.8,1,2.5,2,2.3,4.2c-0.1,1-0.6,3-1.8,3.1
			c-0.6,0.1-1.3-0.3-1.3-1c1.5,1.5-0.6,5.5-2.5,3.5c-0.7-0.8-0.4-2.1,0.3-2.7c-1.1-0.6-3.5-4-1.8-5c-0.8,0-4.5-1.2-3.4-2.3
			c0.3,1.2-1.2,2.9-2.5,2.2c0.8,1.7-1.5,2.9-2.9,3c0.8,1.1-1.8,2.3-2.6,0.8L327.5,103.3z"/>
	</g>
	<g>
		<path class="st11" d="M199.6,89.7c0,0-2.2-8.4,8.7-10.4l-0.8,10.1L199.6,89.7z"/>
		<g>
			<path class="st12" d="M156.1,110.9c-2.4,0-4.6-0.5-6.6-1.4c-9.8-4.7-10.9-18.6-11-19.2c-0.1-2.1,1.4-3.9,3.5-4.1
				c2.1-0.1,3.9,1.4,4.1,3.5c0.2,2.8,1.8,10.6,6.6,12.9c4,1.9,10.1,0,17.8-5.5c1.7-1.2,4.1-0.8,5.3,0.9c1.2,1.7,0.8,4.1-0.9,5.3
				C167.9,108.3,161.6,110.9,156.1,110.9z"/>
		</g>
		<g>
			<g>
				<path class="st4" d="M176.5,118c1.1-2.8,2.1-5.6,3.2-8.4c-0.8-0.1-1.6-0.2-2.3-0.3c-3.7-0.7-6.9-2.2-9.4-4.5
					c-2.6-2.3-4.6-5.2-6-8.8c-1.4-3.5-2.2-7.6-2.4-12.1c-0.2-4.5,0.1-9.3,1.1-14.3c1-5.1,2.4-9.7,4.3-13.8c1.9-4.1,4.1-7.5,6.7-10.3
					c2.6-2.8,5.5-4.8,8.8-6c3.2-1.2,6.7-1.4,10.4-0.7c2.9,0.6,5.5,1.7,7.8,3.3c1.1-2.2,2.3-4.3,3.4-6.4c1.3-2.5,2.5-5.1,3.7-7.6
					c0.5-1.1,0.9-2.2,1.4-3.4c-3.8-2.1-8-3.7-12.7-4.6c-6.6-1.3-12.9-1-18.7,0.7c-5.8,1.7-11.1,4.7-15.8,8.8
					c-4.7,4.1-8.7,9.2-11.9,15.4c-3.3,6.2-5.6,13.1-7.1,20.7c-1.5,7.6-1.8,14.9-1.1,21.9c0.8,7,2.5,13.2,5.4,18.7
					c2.8,5.5,6.7,10.2,11.5,14c4.5,3.5,9.7,5.9,15.8,7.3C173.9,124.5,175.3,121.3,176.5,118z"/>
				<path class="st5" d="M228.3,60.5c-0.8-7-2.5-13.2-5.4-18.7c-2.8-5.5-6.7-10.2-11.4-14c-1.3-1-2.6-1.9-4.1-2.8
					c-0.4,1.1-0.9,2.3-1.4,3.4c-1.2,2.6-2.4,5.1-3.7,7.6c-1.1,2.1-2.3,4.3-3.4,6.5c0.4,0.3,0.8,0.6,1.1,0.9c2.6,2.3,4.6,5.2,6,8.8
					c1.5,3.6,2.3,7.6,2.5,12c0.2,4.5-0.1,9.3-1.1,14.4c-1,5-2.4,9.6-4.3,13.7c-1.9,4.1-4.1,7.6-6.8,10.3c-2.7,2.8-5.6,4.8-8.9,6
					c-2.4,0.9-4.9,1.3-7.5,1.1c-1.3,3-2.3,6.1-3.5,9.2c-1.1,3-2.4,6-3.8,8.9c0.3,0.1,0.6,0.1,0.9,0.2c6.6,1.3,12.9,1,18.7-0.7
					c5.8-1.7,11.1-4.7,15.8-8.8c4.7-4.1,8.7-9.2,11.9-15.4c3.3-6.2,5.6-13.1,7.1-20.7C228.7,74.7,229.1,67.5,228.3,60.5z"/>
			</g>
			<g>
				<path class="st6" d="M185.5,132c-6.6-1.3-12.3-3.8-17.1-7.6c-4.8-3.8-8.6-8.4-11.4-14c-2.8-5.5-4.6-11.8-5.4-18.7
					c-0.8-7-0.4-14.2,1.1-21.9c1.5-7.6,3.8-14.5,7.1-20.7c3.3-6.2,7.2-11.3,11.9-15.4c4.7-4.1,9.9-7,15.8-8.8
					c5.8-1.7,12.1-2,18.7-0.7c6.6,1.3,12.3,3.8,17.1,7.6c4.8,3.8,8.6,8.4,11.5,14c2.8,5.5,4.6,11.8,5.4,18.7
					c0.8,7,0.4,14.2-1.1,21.9c-1.5,7.6-3.8,14.5-7.1,20.7c-3.3,6.2-7.2,11.3-11.9,15.4c-4.7,4.1-9.9,7-15.8,8.8
					C198.3,133,192.1,133.2,185.5,132z M189.1,113.3c3.6,0.7,7,0.4,10.3-0.8c3.2-1.2,6.2-3.2,8.9-6c2.7-2.8,4.9-6.2,6.8-10.3
					c1.9-4.1,3.3-8.7,4.3-13.7c1-5.1,1.3-9.9,1.1-14.4c-0.2-4.5-1.1-8.5-2.5-12c-1.5-3.6-3.5-6.5-6-8.8c-2.6-2.3-5.7-3.8-9.3-4.5
					c-3.7-0.7-7.2-0.5-10.4,0.7c-3.2,1.2-6.2,3.2-8.8,6c-2.6,2.8-4.8,6.2-6.7,10.3c-1.9,4.1-3.3,8.7-4.3,13.8c-1,5-1.3,9.8-1.1,14.3
					c0.2,4.5,1,8.5,2.4,12.1c1.4,3.5,3.4,6.5,6,8.8C182.2,111.1,185.3,112.6,189.1,113.3z"/>
			</g>
		</g>
		<g>
			<path class="st8" d="M253,75.8l0.3,14.1c0,0-4,3.6-7.6,0L247,74L253,75.8z"/>
			<path class="st0" d="M236.4,188c-0.2-0.2-1.8-0.9-2-1.1c-0.8,1.3-1.4,2-2.4,3c2.5,2.2,1.8,4.8,1.8,4.8s-1.8,1.5-2.4,1.8
				c-2.2,1.1-6.2,2.6-6.2,2.6l10.2,0.8l7.5-7.7C240.2,190.7,238.1,189.4,236.4,188z"/>
			<path class="st0" d="M196.6,188.6c-1.6-0.3-3.7,1-5,0c-0.3,2.8-0.2,4.4-0.2,4.4l-15,6.2h19.2c0.2-2-0.2-4,0.1-5.9
				C195.8,192.2,196.4,189.5,196.6,188.6z"/>
			<path class="st12" d="M214.1,120.3l-17,32.3c0,0,6.9,5.8,13.7,7.8l12.7-38.1L214.1,120.3z"/>
			<path class="st0" d="M232.7,190.7c1-1,1.9-2.3,2.7-3.6c-4.4-3.8-6.5-7.7-12.5-14.3c-2.5-2.8,4.1-18.6,5.7-21.3
				c2.9-4.8,3.3-8.2,5.5-16.4l-16.6,6.2c-4,14.2-8.6,28.3-3.9,35.1c4.9,7.1,13.5,12.9,17.7,15.8
				C231.4,192.3,232.6,190.6,232.7,190.7z"/>
			<g>
				<path class="st1" d="M204.8,88.1c-0.2,0-0.5-0.1-0.7-0.2c-0.5-0.4-0.6-1.1-0.3-1.6c1.3-1.9,1.6-3.4,1.6-3.4
					c0.1-0.6,0.7-1,1.3-0.9c0.6,0.1,1,0.7,0.9,1.3c0,0.1-0.4,2-2,4.3C205.5,87.9,205.1,88.1,204.8,88.1z"/>
			</g>
			<path class="st13" d="M232.9,138.6c4.9-13.6,9.2-34.9,10.7-43.4c-0.9-0.4-1.7-0.6-2.4-0.8c-1.5-0.4-3.2-0.9-4.7-0.4
				c-0.8,0.2-1.4,0.6-2.1,1c-0.6,1.8-0.9,3.4-0.9,3.4s-10.6,20.3-17.5,34.1C221.9,133.9,227.6,135.8,232.9,138.6z"/>
			<path class="st8" d="M215.8,133C215.8,133,215.8,133,215.8,133c-0.6,1.2-1.2,2.4-1.7,3.5c0,0,0,0,0,0c-1.4,2.4-2.8,4.6-4.2,6.8
				c-13.7,20.6-18.8,37-19.7,44.8c1.3,1,6.2,1.6,7.9,1.9c2.5-12.9,9.1-21.1,20.8-30.8c3.9-3.2,6.9-7.4,9.5-10.8
				c1.5-2,3.1-5.3,4.5-9.3C227.4,136.2,221.7,134.3,215.8,133z"/>
			<g>
				<path class="st1" d="M202.5,138.7c-1.6,0-3.1-1-3.6-2.6c-0.7-2,0.4-4.2,2.4-4.9c4.6-1.6,11.8-8,16.6-14.8
					c9.7-13.8,16.6-21.5,16.9-21.8c1.4-1.6,3.8-1.7,5.4-0.3c1.6,1.4,1.7,3.8,0.3,5.4l0,0c-0.1,0.1-6.9,7.7-16.3,21.1
					c-4.7,6.7-13.1,15.1-20.3,17.6C203.4,138.6,203,138.7,202.5,138.7z"/>
			</g>
			<g>
				<path class="st1" d="M241,96.5c-0.1,0-0.2,0-0.3,0c-2-0.1-3.5-1.9-3.3-3.9c0.2-2.1,1-4.4,1-4.7c0.6-1.9,2.7-2.9,4.6-2.2
					c1.9,0.6,2.9,2.7,2.2,4.6c-0.2,0.7-0.6,2-0.7,2.9C244.4,95.1,242.8,96.5,241,96.5z"/>
			</g>
			<g>
				<path class="st10" d="M242,92.7c0.6,0.7,1.3,1.4,2.1,2c0.3-0.5,0.4-1,0.5-1.5c0.1-0.9,0.4-2.2,0.7-2.9c0.6-1.9-0.4-3.9-2.2-4.6
					c-1.6-0.5-3.2,0.1-4.1,1.3C239.2,89.1,240.9,91.4,242,92.7z"/>
			</g>
			<g>
				<path class="st1" d="M251.3,84.9c-0.1,3.8-3.2,6.7-7,6.7l0,0c-3.8-0.1-6.7-3.2-6.7-7l0.1-4.7c0.1-3.8,3.2-6.7,7-6.7l0,0
					c3.8,0.1,6.7,3.2,6.7,7L251.3,84.9z"/>
			</g>
			<g>
				<path class="st1" d="M197.1,137.6c-1.6,0-3.4-0.4-5.4-1.3c-0.6-0.2-0.8-0.9-0.6-1.5c0.2-0.6,0.9-0.8,1.5-0.6
					c3,1.2,5.3,1.4,6.8,0.5c0.5-0.3,1.2-0.2,1.5,0.4c0.3,0.5,0.2,1.2-0.4,1.5C199.6,137.3,198.5,137.6,197.1,137.6z"/>
			</g>
			<g>
				<path class="st1" d="M198.5,139.2c-1.8,0-3.2-0.3-4.9-0.7l-0.5-0.1c-0.6-0.1-1-0.8-0.8-1.4c0.1-0.6,0.8-1,1.4-0.8l0.5,0.1
					c2.7,0.7,4.5,1.1,8.5,0.1c0.6-0.2,1.2,0.2,1.4,0.8c0.2,0.6-0.2,1.2-0.8,1.4C201.3,139,199.8,139.2,198.5,139.2z"/>
			</g>
			<g>
				<path class="st1" d="M197.1,135.4c-3.5,0-6-2.2-6.1-2.3c-0.5-0.4-0.5-1.1-0.1-1.6c0.4-0.5,1.1-0.5,1.6-0.1
					c0.1,0.1,2.7,2.4,6.2,1.5c0.6-0.2,1.2,0.2,1.4,0.8c0.2,0.6-0.2,1.2-0.8,1.4C198.5,135.3,197.7,135.4,197.1,135.4z"/>
			</g>
			<g>
				<path class="st1" d="M199.4,134.2c0,0-0.1,0-0.1,0c-3.8-0.4-5.4-3.2-5.5-3.3c-0.3-0.5-0.1-1.2,0.4-1.5c0.5-0.3,1.2-0.1,1.5,0.4
					c0.1,0.1,1.1,1.9,3.7,2.2c0.6,0.1,1.1,0.6,1,1.2C200.5,133.7,200,134.2,199.4,134.2z"/>
			</g>
			<g>
				<path class="st1" d="M212.9,89.7c-0.1,0-0.1,0-0.2,0c-1.9-0.3-7-1.1-8.1-1.1c-0.6,0-1.1-0.5-1.1-1.1c0-0.6,0.5-1.1,1.1-1.1
					c1.6,0,7.8,1,8.5,1.1c0.6,0.1,1,0.7,0.9,1.3C213.9,89.3,213.4,89.7,212.9,89.7z"/>
			</g>
			<g>
				<path class="st1" d="M212.1,92.1c-0.1,0-0.2,0-0.3,0c-0.1,0-5.4-1.5-7.9-1.6c-0.6,0-1.1-0.6-1.1-1.2c0-0.6,0.6-1.1,1.2-1.1
					c2.7,0.2,8.1,1.6,8.4,1.7c0.6,0.2,1,0.8,0.8,1.4C213.1,91.7,212.6,92.1,212.1,92.1z"/>
			</g>
			<g>
				<path class="st1" d="M211.6,94.5c-0.1,0-0.2,0-0.3-0.1c-5.1-1.6-6.3-1.7-7-1.8c-0.3,0-0.6,0-0.9-0.1c-0.6-0.2-1-0.8-0.8-1.4
					c0.2-0.6,0.8-1,1.4-0.8c0.2,0,0.3,0.1,0.5,0.1c0.8,0.1,2.2,0.2,7.5,1.9c0.6,0.2,0.9,0.8,0.7,1.4
					C212.5,94.2,212.1,94.5,211.6,94.5z"/>
			</g>
			<g>
				<path class="st1" d="M209.4,96.3C209.3,96.3,209.3,96.3,209.4,96.3c-5.2-0.4-5.4-3.1-5.4-3.4l2.3-0.1c0,0,0,0,0-0.1
					c0,0,0.2,1.1,3.2,1.3c0.6,0,1.1,0.6,1,1.2C210.5,95.9,210,96.3,209.4,96.3z"/>
			</g>
			<path class="st1" d="M205.1,95c0,0-1-0.5-2.5-0.5c-1.3,0-3-2.2-3-4.4c0,0-0.6-6.6,6.4-3.6L205.1,95z"/>
			<path class="st12" d="M227.2,114.7l-9.8,48.4c0,0,15.2,3.7,24.6-1.7l2.4-67.3C244.3,94.2,233.9,90.5,227.2,114.7z"/>
			<path class="st2" d="M229.5,141.4l9.4-0.5c0,0,0.2,14.4-5.4,13.8C233.5,154.7,225.8,156.4,229.5,141.4z"/>
			<path class="st2" d="M241.3,93c-1-0.9-2.4-1.4-3.8-1.4c-1.6,0-3.1,0.7-4.2,1.9c-0.3,0.3-7.2,8-17,22c-0.6,0.9-1.4,1.8-2.1,2.8
				l-1,1.2l1.1,1.1c1.2,1.2,2.4,2.4,3.6,3.6c0.6,0.6,1.3,1.3,1.9,1.9l1.4,1.4l1.3-1.5c1.1-1.3,2.2-2.7,3.1-4
				c9.4-13.3,16.1-20.9,16.2-20.9C243.8,98.7,243.6,95.1,241.3,93z"/>
			
				<rect x="215.7" y="115" transform="matrix(0.6683 -0.7439 0.7439 0.6683 -18 202.9027)" class="st14" width="5.7" height="13.3"/>
			<path class="st8" d="M230.9,87.6l8.7,3.4c0,0,3.7-17.9,1-20.6C240.5,70.4,230.9,69.5,230.9,87.6z"/>
			<path class="st8" d="M241,73.5c0.3,0.5,7,4.9,12.3,3.7c0,0-0.9-7.9-13.2-6.8L241,73.5z"/>
			<path class="st15" d="M246.2,82c0,2.1-1.7,3.8-3.8,3.8c-2.1,0-3.8-1.7-3.8-3.8c0-2.1,1.7-3.8,3.8-3.8
				C244.5,78.2,246.2,79.9,246.2,82z"/>
			<path class="st16" d="M254.7,82.7c0,1.8-1.5,3.3-3.3,3.3c-1.8,0-3.3-1.5-3.3-3.3c0-1.8,1.5-3.3,3.3-3.3
				C253.2,79.4,254.7,80.9,254.7,82.7z"/>
			<path class="st15" d="M246.2,82c0,0,1.2-0.5,2,0.3"/>
		</g>
		<g>
			<g>
				<path class="st10" d="M136.7,88.6c-0.1,0-0.2,0-0.3,0c-2-0.1-3.5-1.9-3.3-3.9c0.2-2.1,1-4.4,1-4.7c0.6-1.9,2.7-2.9,4.6-2.2
					c1.9,0.6,2.9,2.7,2.2,4.6c-0.2,0.7-0.6,2-0.7,2.9C140.1,87.1,138.6,88.6,136.7,88.6z"/>
			</g>
			<g>
				<path class="st0" d="M134.6,188.5c6,2.8,10.9,2.7,11.3,2.8c3.9-6.9,15.6-25.7,4.9-41l-15.1-8.1
					C135.7,142.1,150.8,157.9,134.6,188.5z"/>
				<path class="st0" d="M142.4,194.7c0,0,1.4-2.8,2.5-4.7c-0.8-0.1-4.5-0.2-6-0.8c-1.4,2.9-4.5,7.1-6.6,10h20.3L142.4,194.7z"/>
				<path class="st8" d="M167.4,151.1c-2.5-4.9-20.8-19.6-22.5-28.1c-0.1-0.7-0.3-1.5-0.4-2.3c-2.9,1.6-6.8,2-9.8,2.1
					c-3.4,0.2-5.5,0.4-8.8-1.2c0.3,5.2-0.6,10.3,2.5,15.6c6.1,10.6,26.3,19.6,28.5,23.1c4.4,6.9,6,21.8,7.5,30.9
					c2.4,0,8-0.1,10.3-0.9C174,185.7,175.3,166.5,167.4,151.1z"/>
				<path class="st0" d="M173.7,193.8c0,0-0.7-2.7-0.9-3.9c-2.3,0.8-3.7,0-6.1,0c0.4,2.3,0.1,6.5,0.3,9h19.2L173.7,193.8z"/>
				<path class="st12" d="M134.9,125.7c2.9-0.1,9.1-0.9,11.5-3.4c-0.5-4-2.3-10.5-1.7-15.7c2.1-17.6-6.5-22.9-6.5-22.9
					s-4-2.8-7.2,0.5c-4.8,5-9.6,19.1-9.1,39.9C125.4,125.8,131.4,125.8,134.9,125.7z"/>
			</g>
			<g>
				<path class="st1" d="M179.1,131.2c-0.3,0-0.6,0-0.9-0.1c-13.9-3.2-25.6-11.5-34-24c-6.3-9.4-8.4-17.8-8.5-18.1
					c-0.5-2,0.7-4.1,2.8-4.6c2-0.5,4.1,0.7,4.6,2.8c0,0.2,2,7.7,7.6,16c7.3,10.9,17.2,17.8,29.2,20.6c2.1,0.5,3.3,2.5,2.9,4.6
					C182.4,130,180.8,131.2,179.1,131.2z"/>
			</g>
			<path class="st2" d="M170.6,119.7c-7.6-3.6-14.1-9.4-19.3-17.1c-5.5-8.2-7.5-15.7-7.5-15.8c-0.5-2-2.3-3.4-4.4-3.4
				c-0.4,0-0.7,0-1.1,0.1c-1.2,0.3-2.1,1-2.8,2.1c-0.6,1-0.8,2.2-0.5,3.4l0,0.1c0.6,2.6,3,11.6,8.6,20.1
				c6.7,10.1,15.9,17.6,26.4,21.8c0.1,0,0.2,0,0.2,0c0.1,0,0.3,0,0.4-0.1c0.2-0.1,0.3-0.3,0.3-0.6v-10.1
				C171,120.1,170.9,119.8,170.6,119.7z"/>
			<g>
				<path class="st1" d="M181.9,131.5c-1.2,0-2.5-0.1-3.9-0.4c-0.6-0.1-1-0.7-0.9-1.3c0.1-0.6,0.7-1,1.3-0.9
					c3.4,0.7,6.1,0.4,8.3-0.7c0.5-0.3,1.2-0.1,1.5,0.5c0.3,0.5,0.1,1.2-0.5,1.5C186.1,131,184.1,131.5,181.9,131.5z"/>
			</g>
			<g>
				<path class="st1" d="M182.1,129c-0.5,0-1.1,0-1.6-0.1c-0.6-0.1-1-0.7-1-1.3c0.1-0.6,0.7-1,1.3-1c3.6,0.5,6.9-1.3,7-1.4
					c0.5-0.3,1.2-0.1,1.5,0.4c0.3,0.5,0.1,1.2-0.4,1.5C188.7,127.3,185.7,129,182.1,129z"/>
			</g>
			<g>
				<path class="st1" d="M181.1,126.8c-0.2,0-0.4,0-0.5,0c-0.6,0-1.1-0.6-1.1-1.2c0-0.6,0.6-1.1,1.2-1.1c2.7,0.2,4.1-1.5,4.1-1.5
					c0.4-0.5,1.1-0.6,1.6-0.2c0.5,0.4,0.6,1.1,0.2,1.6C186.4,124.5,184.6,126.8,181.1,126.8z"/>
			</g>
			<g>
				<path class="st1" d="M177.2,124.9c-0.6,0-1.1-0.5-1.1-1.1c0-0.6,0.5-1.1,1.1-1.1c0.1,0,2.3-0.1,3.6-1.9c0.4-0.5,1.1-0.6,1.6-0.3
					c0.5,0.4,0.6,1.1,0.3,1.6C180.7,124.8,177.3,124.9,177.2,124.9z"/>
			</g>
			<g>
				<path class="st1" d="M173.5,99.5c-0.4,0-0.7-0.2-0.9-0.5c-1.7-2.3-2-4.3-2-4.3c-0.1-0.6,0.3-1.2,0.9-1.3
					c0.6-0.1,1.2,0.3,1.3,0.9c0,0,0.3,1.5,1.6,3.4c0.4,0.5,0.2,1.2-0.3,1.6C174,99.4,173.7,99.5,173.5,99.5z"/>
			</g>
			<g>
				<path class="st1" d="M173.7,99.9c-0.1,0-0.1,0-0.2,0c-2.5-0.5-7.3-0.5-7.4-0.5c-0.6,0-1.1-0.5-1.1-1.1s0.5-1.1,1.1-1.1
					c0.2,0,5.1,0,7.8,0.5c0.6,0.1,1,0.7,0.9,1.3C174.7,99.6,174.3,99.9,173.7,99.9z"/>
			</g>
			<g>
				<path class="st1" d="M165.5,102.3c-0.6,0-1-0.4-1.1-1c-0.1-0.6,0.4-1.2,1-1.3c0.7-0.1,7-0.9,9.1-0.5c0.6,0.1,1,0.7,0.9,1.3
					c-0.1,0.6-0.7,1-1.3,0.9c-1.3-0.2-5.8,0.2-8.4,0.5C165.6,102.3,165.6,102.3,165.5,102.3z"/>
			</g>
			<g>
				<path class="st1" d="M167,104.8c-0.5,0-1-0.4-1.1-0.9c-0.1-0.6,0.3-1.2,0.9-1.3c2.7-0.5,3.5-0.8,4.8-1.2
					c0.6-0.2,1.4-0.4,2.5-0.8c0.6-0.2,1.2,0.2,1.4,0.8c0.2,0.6-0.2,1.2-0.8,1.4c-1.1,0.3-1.8,0.6-2.5,0.8c-1.4,0.4-2.2,0.7-5,1.3
					C167.1,104.8,167,104.8,167,104.8z"/>
			</g>
			<g>
				<path class="st1" d="M169.4,106.6c-0.5,0-1-0.4-1.1-0.9c-0.1-0.6,0.3-1.2,0.9-1.3c3.6-0.6,4.4-2,4.4-2c0.2-0.6,0.8-0.9,1.4-0.7
					c0.6,0.2,0.9,0.8,0.7,1.4c-0.1,0.4-1.1,2.7-6.1,3.5C169.5,106.6,169.5,106.6,169.4,106.6z"/>
			</g>
			<path class="st1" d="M173.7,105.3l-0.9-9.2c0,0,4,0.3,4,4.5C176.9,102,176.5,103.6,173.7,105.3z"/>
			<g>
				<path class="st1" d="M148.4,75.4c1,3.8-1.3,7.8-5.1,8.8l0,0c-3.8,1-7.8-1.3-8.8-5.1l-1.3-4.8c-1-3.8,1.3-7.8,5.1-8.8l0,0
					c3.8-1,7.8,1.3,8.8,5.1L148.4,75.4z"/>
			</g>
			<g>
				<path class="st8" d="M147.7,72.8c-0.5,1.5-1.3,3-2.5,4.1c-2.9,2.5-7.3,3.2-10.9,1.7l0.1,0.5c1,3.8,5,6.1,8.8,5.1
					c3.8-1,6.1-5,5.1-8.8L147.7,72.8z"/>
			</g>
			<path class="st8" d="M134.5,78.8c-2.7-1.7-5.6-8.3-1.4-9.8c2.6-0.9,1.6,7.2,1.6,9.5L134.5,78.8z"/>
			<path class="st8" d="M132.3,69.6c-3.3-2.4,0.8-9.1,8.9-9.1c5,0,5,3.8,1.5,5.9c-2.9,1.7-7.3,0.7-9.5,3.6L132.3,69.6z"/>
			<path class="st8" d="M147.7,74.3c-1.1-1.7-3.4-5.2-4.3-7.2c-0.6-1.3-1.3-3.4,1.2-1.9c2.1,1.3,3.2,5.8,3.1,8L147.7,74.3z"/>
		</g>
	</g>
	<g>
		<g>
			<path class="st5" d="M90.7,90.3c-1.2,1.1-2.6,2.2-3.7,3.5l-16.2,33.9l12.1-15.6l12.8-26.6C94,87.2,92.4,88.8,90.7,90.3z"/>
			<path class="st5" d="M81.1,84.7c1.2-1.6,2.3-3.5,3.7-5.2L56.3,65.7l-27,2.7l47.3,21.8C78.1,88.4,79.7,86.6,81.1,84.7z"/>
			<path class="st4" d="M85.1,79.8c-1.5,1.9-2.7,4.1-4.2,5.9c-1.3,1.6-2.6,3.2-3.9,4.7l21.5,9.9l7.8-10.2L85.1,79.8z"/>
			<path class="st6" d="M52.8,119.2l8.3-17.4L17.4,80.8l7-14.6l71.9-42.4l19.6,9.4L87.1,93.5L99,99.2L91,116l-11.9-5.7l-8.3,17.4
				L52.8,119.2z M85.1,51.6L84,51L45.5,73.6l23.6,11.3L85.1,51.6z"/>
			<polygon class="st5" points="99,99.2 106.3,90.1 100.6,102.7 90.7,116.6 			"/>
			<path class="st5" d="M96.2,85.1l28.4-62.2L116,33.2L87.1,93.5C87.9,92.7,95.8,85.5,96.2,85.1z"/>
			<polygon class="st17" points="24.4,66.2 37.3,55 107.5,14.7 96.4,23.8 			"/>
			<polygon class="st7" points="96.4,23.8 116,33.2 124.6,22.9 107.5,14.7 			"/>
		</g>
		<path class="st1" d="M72.3,69.2c-2.4-1.7-4.1-1-5.2-0.8c-1.3,0.2-2.2-0.5-2.2-0.5c-0.5-0.3-1.2-0.2-1.6,0.3
			c-0.3,0.5-0.2,1.2,0.3,1.6c0.1,0,1,0.7,2.8,1.1c-1.9,1.7-3.8,3.8-3.9,3.9c-0.4,0.5-0.4,1.2,0.1,1.6c0.2,0.2,0.5,0.3,0.8,0.3
			c0.3,0,0.6-0.1,0.8-0.4c0,0,1.4-1.5,2.8-2.9c-1.4,1.7-2.7,3.5-2.9,3.9c-0.4,0.5-0.2,1.2,0.3,1.6c0.2,0.1,0.4,0.2,0.7,0.2
			c0.3,0,0.7-0.2,0.9-0.5c0.7-1,1.8-2.4,2.8-3.7c-0.4,0.7-0.8,1.6-1.8,3.1c-0.3,0.5-0.2,1.2,0.4,1.6c0.2,0.1,0.4,0.2,0.6,0.2
			c0.4,0,0.7-0.2,1-0.5c0.4-0.6,0.7-1.1,1-1.6c-0.2,0.5,0,1.1,0.4,1.4c0.2,0.1,0.4,0.2,0.6,0.2c0.4,0,0.7-0.2,0.9-0.5
			c1.1-1.6,1.6-2.9,1.8-4l0,0C74.2,71.6,73.4,70.1,72.3,69.2z M70,77.2c0.4-0.7,0.6-1.1,0.9-1.6C70.7,76,70.4,76.5,70,77.2z"/>
		<path class="st8" d="M37.8,82c-3.6-0.2-8.7,6.8-3.4,8.7c-4.8-0.1-6,6.7-1.6,8.5c-7.7-1.5-6.8,8.5-3.2,12.1c-2.5-0.4-5,2-4.6,4.5
			c0.4,2.6,1.4,6.2,7.8,8.1c6.4,1.9,10.3-1.7,13.5-5.1c2,4.2,12.1-1.5,11-6.4c3.8,1.3,7.2-3,7.3-6.4c0.1-3.4-2.3-5.9-4.5-8.1
			c1.6-1.4,1.9-4.1,1.5-6.2c-0.7-3.4-4.9-3.7-4.9-6.4c0-0.9,0.2-3.9-0.6-5.2C54.7,78,52.4,76,49.6,77C37.8,71.4,37.8,82,37.8,82z"/>
		<path class="st0" d="M44.7,191.3c-3.2-0.6-3.8-0.4-7-1.2l-7.4,9.1h28.8l-16.7-4.5L44.7,191.3z"/>
		<path class="st0" d="M98.3,193.9l-1.7-2.2c-1.5,1-3.1,1.8-4.9,2.4l4.5,5.1h16.9L98.3,193.9z"/>
		<path class="st0" d="M34.7,191.3c3.2,0.8,6.5,1.6,9.7,2.2l23.8-29.3l-4.1-11.6l-16.7-19.2l4.8,27.2L34.7,191.3z"/>
		<path class="st8" d="M67,125.3c-6.5-1.7-15.4,0.5-21.7,2.9c0,0,3.9,15.5,6.5,20.1c7.4,13.5,39.7,47.1,39.7,47.1
			c1.8-0.6,5.2-3.1,6.7-4.1L67,125.3z"/>
		<path class="st12" d="M44.4,134.2c6.3-2.4,18.9-6.4,25.4-4.7c0,0-8.6-20.2-12.5-24.6c-2.6-3-17-11.5-17-0.4
			C40.4,119.6,44.4,134.2,44.4,134.2z"/>
		<g>
			<path class="st1" d="M50,103.5c-0.1,0-0.2,0.1-0.3,0.1c-1.9,0.5-3.9-0.6-4.4-2.5c-0.5-2-0.6-4.5-0.6-4.8c0-2,1.6-3.6,3.6-3.6
				c2,0,3.6,1.6,3.6,3.6c0,0.7,0.1,2.1,0.3,3C52.8,101,51.8,102.9,50,103.5z"/>
		</g>
		<g>
			<path class="st10" d="M52.4,99.9c0-0.3,0-0.5-0.1-0.8c-0.2-0.8-0.3-2.2-0.3-3c0-2-1.6-3.6-3.6-3.6c-2,0-3.6,1.6-3.6,3.6
				c0,0,0,0.2,0,0.3C46.6,98.6,49.5,99.5,52.4,99.9z"/>
		</g>
		<g>
			<path class="st1" d="M55.9,89.1c1.2,3.6-0.8,7.4-4.4,8.6l0,0c-3.6,1.2-7.4-0.8-8.6-4.4l-1.5-4.5c-1.2-3.6,0.8-7.4,4.4-8.6l0,0
				c3.6-1.2,7.4,0.8,8.6,4.4L55.9,89.1z"/>
		</g>
		<path class="st1" d="M96.1,85.5c-0.1-0.1-0.3-0.2-0.5-0.2c0.2-0.2,0.3-0.4,0.5-0.6c0.4-0.5,0.4-1.2-0.1-1.6
			C96,83.1,95.9,83,95.9,83c0.3-0.5,0.3-1.1-0.2-1.5c-0.3-0.3-0.8-0.4-1.2-0.2c0.5-0.5,0.8-0.9,0.9-0.9c0.4-0.5,0.4-1.2-0.1-1.6
			c-0.5-0.4-1.2-0.4-1.6,0.1c0,0-2.5,2.8-5,4.2c-1.1-1.7-2.6-2.2-2.6-2.3c-0.6-0.2-1.2,0.1-1.4,0.6c-0.2,0.6,0.1,1.2,0.6,1.5
			c0,0,0.9,0.4,1.6,1.4c-0.1,0.3-0.2,0.6-0.3,1c-16.6,22.4-38.5,14.5-39.5,14.1c-2-0.8-4.2,0.2-4.9,2.2c-0.8,2,0.2,4.2,2.2,5
			c0.3,0.1,5.6,2.1,13.3,2.1c1.5,0,3.2-0.1,4.9-0.3c8.3-1,20.5-5.7,30.3-18.3c0.2-0.1,0.4-0.2,0.7-0.5c0.2-0.1,0.4-0.3,0.6-0.4l0,0
			c0.6-0.5,1.3-1.2,2.1-2.1C96.6,86.6,96.5,85.9,96.1,85.5z"/>
		<path class="st2" d="M65.6,99.5l-0.9,0.2c-2.3,0.5-4.6,0.7-7,0.7c-5.8,0-9.8-1.5-10.3-1.6c-0.5-0.2-1.1-0.3-1.6-0.3
			c-1.9,0-3.5,1.1-4.2,2.9c-0.4,1.1-0.5,2.4,0.1,3.4c2.2,3.9,8.2,5.5,16,5.5c1.7,0,3.3-0.1,5-0.3c1-0.1,2-0.3,3.1-0.5l0.7-0.2
			c0,0-0.9-2.8-1.1-5.7C65.2,102.6,65.6,99.5,65.6,99.5z"/>
		<path class="st8" d="M41.4,92.5c2.4-1.5,3.2-4.3,2.9-7.1c2.1,1.4,3.7,0.5,5-1.9c3.9,5.5,9.9-2.7,1.8-5.6
			c-6.5-2.4-12.9,4.1-11.3,10.6L41.4,92.5z"/>
	</g>
</g>
<g id="DESIGNED_BY_FREEPIK">
</g>
</svg>
