<svg xmlns="http://www.w3.org/2000/svg" xmlns:xlink="http://www.w3.org/1999/xlink" viewBox="0 0 529.52 500.48"><defs><style>.cls-1{isolation:isolate;}.cls-2{fill:url(#Degradado_sin_nombre_15);}.cls-3{fill:#74b9e7;}.cls-3,.cls-5{mix-blend-mode:soft-light;}.cls-4{fill:url(#Degradado_sin_nombre_15-2);}.cls-5{fill:url(#Degradado_sin_nombre_15-3);}.cls-6{fill:url(#linear-gradient);}.cls-7{fill:url(#_50);}.cls-8{fill:url(#linear-gradient-2);}.cls-10,.cls-11,.cls-12,.cls-14,.cls-67,.cls-9{fill:#fff;}.cls-9{opacity:0.42;}.cls-10{opacity:0.58;}.cls-11{opacity:0.28;}.cls-12{opacity:0.47;}.cls-13{fill:url(#Degradado_sin_nombre_15-4);}.cls-15{fill:url(#linear-gradient-3);}.cls-16{fill:url(#linear-gradient-4);}.cls-17{fill:url(#linear-gradient-5);}.cls-18{fill:url(#linear-gradient-6);}.cls-19{fill:url(#linear-gradient-7);}.cls-20{fill:url(#linear-gradient-8);}.cls-21{fill:url(#linear-gradient-9);}.cls-22{fill:url(#Degradado_sin_nombre_33);}.cls-23{fill:url(#linear-gradient-10);}.cls-24{fill:url(#linear-gradient-11);}.cls-25{fill:url(#linear-gradient-12);}.cls-26{fill:url(#linear-gradient-13);}.cls-27{fill:url(#linear-gradient-14);}.cls-28{fill:url(#linear-gradient-15);}.cls-29{fill:url(#linear-gradient-16);}.cls-30{fill:url(#linear-gradient-17);}.cls-31{fill:url(#linear-gradient-18);}.cls-32{fill:url(#linear-gradient-19);}.cls-33{fill:url(#linear-gradient-20);}.cls-34{fill:url(#linear-gradient-21);}.cls-35{fill:url(#linear-gradient-22);}.cls-36{fill:url(#linear-gradient-23);}.cls-37{fill:url(#linear-gradient-24);}.cls-38{fill:url(#linear-gradient-25);}.cls-39{fill:url(#linear-gradient-26);}.cls-40{fill:url(#linear-gradient-27);}.cls-41{fill:url(#linear-gradient-28);}.cls-42{fill:url(#linear-gradient-29);}.cls-43{fill:url(#linear-gradient-30);}.cls-44{fill:url(#linear-gradient-31);}.cls-45{fill:url(#linear-gradient-32);}.cls-46{fill:url(#linear-gradient-33);}.cls-47{fill:url(#linear-gradient-34);}.cls-48{fill:url(#linear-gradient-35);}.cls-49{fill:url(#linear-gradient-36);}.cls-50{fill:url(#linear-gradient-37);}.cls-51{fill:url(#linear-gradient-38);}.cls-52{fill:url(#linear-gradient-39);}.cls-53{fill:url(#linear-gradient-40);}.cls-54{fill:url(#linear-gradient-41);}.cls-55{fill:url(#linear-gradient-42);}.cls-56{fill:url(#linear-gradient-43);}.cls-57{fill:url(#linear-gradient-44);}.cls-58{fill:url(#linear-gradient-45);}.cls-59{fill:url(#linear-gradient-46);}.cls-60{opacity:0.3;}.cls-61{fill:url(#linear-gradient-47);}.cls-62{fill:url(#linear-gradient-48);}.cls-63{fill:url(#linear-gradient-49);}.cls-64{fill:url(#linear-gradient-50);}.cls-65{fill:url(#linear-gradient-51);}.cls-66{fill:url(#Degradado_sin_nombre_15-5);}.cls-67{opacity:0.56;}.cls-68{fill:url(#linear-gradient-52);}.cls-69{fill:url(#linear-gradient-53);}.cls-70{fill:url(#linear-gradient-54);}.cls-71{fill:url(#linear-gradient-55);}.cls-72{fill:url(#Degradado_sin_nombre_15-6);}</style><linearGradient id="Degradado_sin_nombre_15" x1="6314.78" y1="545.93" x2="6512.6" y2="545.93" gradientTransform="translate(-5365.51 -3323.68) rotate(27.83)" gradientUnits="userSpaceOnUse"><stop offset="0" stop-color="#3473ff"/><stop offset="1" stop-color="#38b6ea"/></linearGradient><linearGradient id="Degradado_sin_nombre_15-2" x1="554.66" y1="975.62" x2="744.38" y2="975.62" gradientTransform="translate(-1095.13 -84.36) rotate(-45.52)" xlink:href="#Degradado_sin_nombre_15"/><linearGradient id="Degradado_sin_nombre_15-3" x1="25.91" y1="163.26" x2="73.07" y2="163.26" gradientTransform="matrix(1, 0, 0, 1, 0, 0)" xlink:href="#Degradado_sin_nombre_15"/><linearGradient id="linear-gradient" x1="227.41" y1="368.65" x2="336.48" y2="41.45" gradientUnits="userSpaceOnUse"><stop offset="0" stop-color="#2b3582"/><stop offset="1" stop-color="#150e42"/></linearGradient><linearGradient id="_50" x1="515.85" y1="117.4" x2="-511.17" y2="664.08" gradientUnits="userSpaceOnUse"><stop offset="0" stop-color="#53d8ff"/><stop offset="1" stop-color="#3840f7"/></linearGradient><linearGradient id="linear-gradient-2" x1="245.94" y1="507.94" x2="286.01" y2="288.87" xlink:href="#linear-gradient"/><linearGradient id="Degradado_sin_nombre_15-4" x1="1245.23" y1="305.6" x2="1090.83" y2="172.1" gradientTransform="matrix(-1, 0, 0, 1, 1351.41, 0)" xlink:href="#Degradado_sin_nombre_15"/><linearGradient id="linear-gradient-3" x1="1320.49" y1="318.88" x2="1369.36" y2="200.11" gradientTransform="matrix(-1, -0.02, -0.02, 1, 1404.03, 60.04)" xlink:href="#linear-gradient"/><linearGradient id="linear-gradient-4" x1="1229.96" y1="234.74" x2="1272.04" y2="329.74" gradientTransform="matrix(-1, 0, 0, 1, 1351.41, 0)" gradientUnits="userSpaceOnUse"><stop offset="0" stop-color="#f9b776"/><stop offset="1" stop-color="#f47960"/></linearGradient><linearGradient id="linear-gradient-5" x1="1230.71" y1="234.4" x2="1272.78" y2="329.41" xlink:href="#linear-gradient-4"/><linearGradient id="linear-gradient-6" x1="1331.72" y1="491.55" x2="1344.57" y2="491.55" gradientTransform="matrix(-1, 0, 0, 1, 1351.41, 0)" xlink:href="#linear-gradient"/><linearGradient id="linear-gradient-7" x1="1277.59" y1="538.5" x2="1296.03" y2="323.03" xlink:href="#linear-gradient-4"/><linearGradient id="linear-gradient-8" x1="1286.23" y1="485.64" x2="1306.96" y2="485.64" gradientTransform="matrix(-1, 0, 0, 1, 1351.41, 0)" xlink:href="#linear-gradient"/><linearGradient id="linear-gradient-9" x1="1314.68" y1="541.71" x2="1333.12" y2="326.18" xlink:href="#linear-gradient-4"/><linearGradient id="Degradado_sin_nombre_33" x1="1275.71" y1="328.25" x2="1360" y2="246.08" gradientTransform="matrix(-1, 0, 0, 1, 1351.41, 0)" gradientUnits="userSpaceOnUse"><stop offset="0" stop-color="#f1e500"/><stop offset="1" stop-color="#d93c65"/></linearGradient><linearGradient id="linear-gradient-10" x1="1301.24" y1="371.96" x2="1202.07" y2="505.7" gradientTransform="matrix(-1, 0, 0, 1, 1351.41, 0)" gradientUnits="userSpaceOnUse"><stop offset="0" stop-color="#cb236d"/><stop offset="1" stop-color="#4c246d"/></linearGradient><linearGradient id="linear-gradient-11" x1="1275.57" y1="326.11" x2="1279.03" y2="300.78" xlink:href="#linear-gradient-4"/><linearGradient id="linear-gradient-12" x1="1257.26" y1="266.88" x2="1254.01" y2="347.02" xlink:href="#linear-gradient-4"/><linearGradient id="linear-gradient-13" x1="1220.88" y1="266.19" x2="1217.84" y2="340.85" xlink:href="#linear-gradient-4"/><linearGradient id="linear-gradient-14" x1="-7256.86" y1="2164.62" x2="-7233.67" y2="2191.28" gradientTransform="matrix(-0.97, 0.26, 0.26, 0.97, -7490.27, 75.55)" xlink:href="#linear-gradient-4"/><linearGradient id="linear-gradient-15" x1="1296.04" y1="310.2" x2="1345.35" y2="190.37" gradientTransform="matrix(-1, -0.02, -0.02, 1, 1404.03, 60.04)" xlink:href="#linear-gradient"/><linearGradient id="linear-gradient-16" x1="-7251.06" y1="2159.58" x2="-7227.87" y2="2186.24" gradientTransform="matrix(-0.97, 0.26, 0.26, 0.97, -7490.27, 75.55)" xlink:href="#linear-gradient-4"/><linearGradient id="linear-gradient-17" x1="384.8" y1="159.42" x2="363.14" y2="204.07" gradientTransform="translate(99.59 7.07) rotate(9.25)" xlink:href="#linear-gradient"/><linearGradient id="linear-gradient-18" x1="422.73" y1="301.92" x2="422.73" y2="398.09" gradientTransform="matrix(1, 0, 0, 1, 0, 0)" xlink:href="#linear-gradient-10"/><linearGradient id="linear-gradient-19" x1="381.91" y1="314.09" x2="427.59" y2="424.44" gradientTransform="matrix(1, 0, 0, 1, 0, 0)" xlink:href="#linear-gradient-4"/><linearGradient id="linear-gradient-20" x1="-330.22" y1="313.85" x2="-284.54" y2="424.2" gradientTransform="matrix(-1, 0, 0, 1, 132.67, 0)" xlink:href="#linear-gradient-4"/><linearGradient id="linear-gradient-21" x1="422.48" y1="328.57" x2="420.13" y2="423.88" xlink:href="#linear-gradient"/><linearGradient id="linear-gradient-22" x1="474.14" y1="404.67" x2="449.24" y2="369.23" gradientTransform="matrix(1, 0, 0, 1, 0, 0)" xlink:href="#linear-gradient-10"/><linearGradient id="linear-gradient-23" x1="466.38" y1="341.21" x2="440.03" y2="412.58" gradientTransform="matrix(1, 0, 0, 1, 0, 0)" xlink:href="#linear-gradient-4"/><linearGradient id="linear-gradient-24" x1="370.78" y1="402.08" x2="384.9" y2="369.99" gradientTransform="matrix(1, 0, 0, 1, 0, 0)" xlink:href="#linear-gradient-10"/><linearGradient id="linear-gradient-25" x1="413.59" y1="319.7" x2="387.22" y2="391.11" gradientTransform="matrix(1, 0, 0, 1, 0, 0)" xlink:href="#linear-gradient-4"/><linearGradient id="linear-gradient-26" x1="292.8" y1="495.31" x2="372.7" y2="425.54" xlink:href="#_50"/><linearGradient id="linear-gradient-27" x1="498.28" y1="415.02" x2="368.3" y2="354.81" xlink:href="#_50"/><linearGradient id="linear-gradient-28" x1="422.01" y1="323.2" x2="421.4" y2="270.32" gradientTransform="matrix(1, 0, 0, 1, 0, 0)" xlink:href="#linear-gradient-4"/><linearGradient id="linear-gradient-29" x1="362.6" y1="231.48" x2="364.49" y2="185.46" gradientTransform="translate(99.59 7.07) rotate(9.25)" xlink:href="#linear-gradient-4"/><linearGradient id="linear-gradient-30" x1="384.96" y1="153.14" x2="360.59" y2="203.38" gradientTransform="translate(99.59 7.07) rotate(9.25)" xlink:href="#linear-gradient"/><linearGradient id="linear-gradient-31" x1="340.91" y1="281.26" x2="343.88" y2="209.14" gradientTransform="translate(38.85 66.39) rotate(-7.64)" xlink:href="#linear-gradient-4"/><linearGradient id="linear-gradient-32" x1="422.22" y1="320.99" x2="420.68" y2="394.46" xlink:href="#_50"/><linearGradient id="linear-gradient-33" x1="352.49" y1="136.25" x2="265.55" y2="334.21" xlink:href="#_50"/><linearGradient id="linear-gradient-34" x1="366.27" y1="142.3" x2="279.33" y2="340.26" xlink:href="#_50"/><linearGradient id="linear-gradient-35" x1="379.49" y1="148.11" x2="292.54" y2="346.07" xlink:href="#_50"/><linearGradient id="linear-gradient-36" x1="395.35" y1="155.07" x2="308.41" y2="353.04" xlink:href="#_50"/><linearGradient id="linear-gradient-37" x1="408.1" y1="160.67" x2="321.16" y2="358.63" xlink:href="#_50"/><linearGradient id="linear-gradient-38" x1="418.73" y1="165.34" x2="331.78" y2="363.3" xlink:href="#_50"/><linearGradient id="linear-gradient-39" x1="460.81" y1="81.53" x2="440.9" y2="206.13" xlink:href="#_50"/><linearGradient id="linear-gradient-40" x1="478.45" y1="84.35" x2="458.54" y2="208.95" xlink:href="#_50"/><linearGradient id="linear-gradient-41" x1="488.94" y1="86.03" x2="469.03" y2="210.62" xlink:href="#_50"/><linearGradient id="linear-gradient-42" x1="499.22" y1="87.67" x2="479.31" y2="212.27" xlink:href="#_50"/><linearGradient id="linear-gradient-43" x1="515.51" y1="90.27" x2="495.6" y2="214.87" xlink:href="#_50"/><linearGradient id="linear-gradient-44" x1="393.06" y1="135" x2="359.32" y2="241.97" xlink:href="#_50"/><linearGradient id="linear-gradient-45" x1="402.35" y1="137.93" x2="368.61" y2="244.9" xlink:href="#_50"/><linearGradient id="linear-gradient-46" x1="411.72" y1="140.88" x2="377.98" y2="247.86" xlink:href="#_50"/><linearGradient id="linear-gradient-47" x1="1051.31" y1="97.88" x2="1169.86" y2="97.88" gradientTransform="translate(-618.23 -364.82) rotate(16.34)" gradientUnits="userSpaceOnUse"><stop offset="0" stop-color="#b37cff"/><stop offset="1" stop-color="#f895e7"/></linearGradient><linearGradient id="linear-gradient-48" x1="1175.62" y1="66.65" x2="1182.54" y2="66.65" xlink:href="#linear-gradient-47"/><linearGradient id="linear-gradient-49" x1="1211.56" y1="119.56" x2="1216.31" y2="119.56" xlink:href="#linear-gradient-47"/><linearGradient id="linear-gradient-50" x1="1095.22" y1="173.6" x2="1217.32" y2="173.6" xlink:href="#linear-gradient-47"/><linearGradient id="linear-gradient-51" x1="1083.05" y1="199.34" x2="1089.88" y2="199.34" xlink:href="#linear-gradient-47"/><linearGradient id="Degradado_sin_nombre_15-5" x1="753.59" y1="38.46" x2="682.29" y2="187.42" gradientTransform="translate(-259.44 -124.52) rotate(6.53)" xlink:href="#Degradado_sin_nombre_15"/><linearGradient id="linear-gradient-52" x1="980.8" y1="196.62" x2="984.18" y2="196.62" xlink:href="#linear-gradient-47"/><linearGradient id="linear-gradient-53" x1="979.43" y1="158.66" x2="1045.65" y2="158.66" xlink:href="#linear-gradient-47"/><linearGradient id="linear-gradient-54" x1="1008.98" y1="222.14" x2="1084.57" y2="222.14" xlink:href="#linear-gradient-47"/><linearGradient id="linear-gradient-55" x1="1000.68" y1="226.87" x2="1005.85" y2="226.87" xlink:href="#linear-gradient-47"/><linearGradient id="Degradado_sin_nombre_15-6" x1="586.13" y1="213.24" x2="621.77" y2="108.84" gradientTransform="translate(-259.44 -124.52) rotate(6.53)" xlink:href="#Degradado_sin_nombre_15"/></defs><g class="cls-1"><g id="Capa_2" data-name="Capa 2"><g id="Illustration"><path class="cls-2" d="M17.91,6.35c-.29-2.13,2.76-3.23,4.41-1.61C39.11,21.16,78.61,69.35,60.52,145.4c-22.69,95.41-2.67,132.88,24.35,157.12,0,0-38.93-13.85-60.66-52C-29.16,156.85,23.13,44.08,17.91,6.35Z"/><path class="cls-3" d="M28.91,37.84c1.26,11,2.28,22,2.83,33s.84,22,.68,33-.67,21.93-1.66,32.84-2.4,21.78-3.93,32.68-3,21.87-3.22,33a98.5,98.5,0,0,0,4.68,33.44c.91,2.72,1.88,5.43,3,8.08s2.32,5.28,3.6,7.89a117.52,117.52,0,0,0,9,15.13,130.48,130.48,0,0,0,24.9,26.28,2.74,2.74,0,0,0,3.48-.07,1.93,1.93,0,0,0-.13-3h0c-2.27-1.93-4.51-3.88-6.64-5.91-1.09-1-2.12-2-3.17-3.06s-2.07-2.07-3-3.15a118.22,118.22,0,0,1-25.8-43.38A96.79,96.79,0,0,1,29.8,218.7a105.8,105.8,0,0,1-1-16.21c.13-10.85,1.55-21.72,2.91-32.63S34.34,148,35.08,137q.59-8.26.82-16.54c.1-2.76.13-5.52.17-8.28s0-5.53,0-8.29q-.23-16.57-1.64-33.12c-1-11-2.35-22-4.18-33a.69.69,0,0,0-.75-.5A.58.58,0,0,0,28.91,37.84Z"/><path class="cls-4" d="M31.17,238.2a4.59,4.59,0,0,1-7.36-2c-5.87-17-18.1-66.6,14.71-119.35C66.22,72.34,77,45.56,81.06,33.06a2.88,2.88,0,0,1,5.47,0C96.24,62.12,119.87,160.15,31.17,238.2Z"/><path class="cls-5" d="M27.29,236.1a1,1,0,0,1-.25,0,1.29,1.29,0,0,1-1.13-1.41c.09-.79,9.06-80,44.78-143.63a1.27,1.27,0,0,1,2.22,1.25C37.45,155.51,28.53,234.18,28.44,235A1.26,1.26,0,0,1,27.29,236.1Z"/><path class="cls-6" d="M509,380.52a8.57,8.57,0,0,1-8.54,8.54H38.69a8.57,8.57,0,0,1-8.54-8.54L26.31,115.14c0-4.69,5.53-13.85,15.66-13.17L493.3,90.3a21.52,21.52,0,0,1,22.08,22Z"/><path class="cls-7" d="M500.61,372.34a8.11,8.11,0,0,1-8.08,8.08H49.83a8.11,8.11,0,0,1-8.08-8.08L38.13,131.42c.42-14.5,13.13-19.71,20.84-19.4l432.56-11.61A15.11,15.11,0,0,1,507,115.89Z"/><path class="cls-8" d="M518.23,411.09H13.35a11.52,11.52,0,0,1-11.3-11.66h0a11.52,11.52,0,0,1,11.3-11.66H518.23a11.51,11.51,0,0,1,11.29,11.66h0A11.51,11.51,0,0,1,518.23,411.09Z"/><path class="cls-9" d="M486.14,171l-427.38,2.9c-4.26,0-7.73-2.61-7.73-5.86V131.34c0-3.15,3.26-5.73,7.37-5.85l427.39-12.33c4.34-.12,7.95,2.53,7.95,5.86V165.1C493.74,168.32,490.35,170.93,486.14,171Z"/><path class="cls-10" d="M221.16,186.83h107.5a20.56,20.56,0,0,1,20.56,20.56V322.56a12.61,12.61,0,0,1-12.61,12.61H221.16A28.17,28.17,0,0,1,193,307V215A28.17,28.17,0,0,1,221.16,186.83Z"/><path class="cls-11" d="M351.24,360.24a8.75,8.75,0,0,1-8.68,8.28L54.44,370.34a6.49,6.49,0,0,1-6.44-6.5V353.46a9,9,0,0,1,9-9H348.41a3.47,3.47,0,0,1,3.48,3.47Z"/><rect class="cls-12" x="48" y="182.59" width="135.92" height="149.16" rx="25.43"/><path class="cls-9" d="M400,181.16h81.76a10,10,0,0,1,10,10v165.8A13.66,13.66,0,0,1,478,370.58H373a13.43,13.43,0,0,1-13.43-13.43V221.53A40.37,40.37,0,0,1,400,181.16Z"/><path class="cls-13" d="M262,175.26,122.51,174a4.89,4.89,0,0,0-4.94,4.92l.61,107a4.88,4.88,0,0,0,5,4.87c25.21-.75,137.14-4.06,142.09-3.86s2.23-85.75,1.5-107A4.89,4.89,0,0,0,262,175.26Z"/><path class="cls-14" d="M123.08,286.79a.87.87,0,0,1-.88-.88l-.61-107a.87.87,0,0,1,.25-.63.92.92,0,0,1,.63-.26l139.45,1.25a.89.89,0,0,1,.87.85c1.8,52.44,1.84,92.69.09,102.55l-.05.26h-.26c-18.56.26-119.44,3.26-139.47,3.86Zm-.61-108.13a.21.21,0,0,0-.17.07.22.22,0,0,0-.08.18l.61,107a.24.24,0,0,0,.24.24l0,.32v-.32c19.94-.59,120-3.56,139.22-3.85,1.69-10.25,1.64-50.21-.15-102.15a.24.24,0,0,0-.24-.24Z"/><path class="cls-14" d="M245.12,273h-91.4a3.68,3.68,0,0,1-3.17-5.55L186.73,206a3.68,3.68,0,0,1,6.52.34l17.48,38.29a3.68,3.68,0,0,0,5.83,1.18l7.07-6.48a3.68,3.68,0,0,1,5.5.61l19,27.35A3.68,3.68,0,0,1,245.12,273Z"/><circle class="cls-14" cx="154.96" cy="204.09" r="13.14" transform="translate(-101.22 210.47) rotate(-54.22)"/><path class="cls-15" d="M26.1,304.88c3.57-13.19,14.59-24,26.88-26.77a4.15,4.15,0,0,0,3-5.06v0c-1.78-7.68,3.14-13.79,10.56-15.51s14.52,1.6,16.3,9.28a17,17,0,0,1-3.74,14.77A4.13,4.13,0,0,0,79,287c7.49,8.77,10.54,22.16,7.3,34.13-4.77,17.63-21.35,25.51-38,21S21.33,322.52,26.1,304.88Z"/><path class="cls-14" d="M31.27,321.71l.32-.22c-3-4.22-3.36-10.32-1-15.9,1.88-4.44,5.23-8.5,10.56-12.77,2-1.59,4.08-3.11,6.12-4.57,2.45-1.76,5-3.58,7.33-5.56,2.11-1.78,4.33-4,4.8-6.87a15.25,15.25,0,0,0-.19-4.46c-.33-2.32-.64-4.52.72-6.2l-.31-.24c-1.47,1.81-1.13,4.19-.8,6.49a15.19,15.19,0,0,1,.19,4.34c-.44,2.76-2.61,4.91-4.66,6.64-2.34,2-4.87,3.79-7.31,5.54-2,1.47-4.15,3-6.14,4.58-5.38,4.32-8.77,8.42-10.67,12.92C27.82,311.14,28.21,317.38,31.27,321.71Z"/><path class="cls-14" d="M39.16,324.26l.37-.13c-2-5.6-1.43-12.48,1.63-18.87s8-11.51,12-15.3l-.27-.29c-4,3.82-9,9-12.05,15.42S37.1,318.57,39.16,324.26Z"/><path class="cls-16" d="M118.83,251.87l.14-4.56-4.77-9.46a6.15,6.15,0,0,1,0-5.5l5.4-10.9s3.12,23.65,3.94,25.62-2.23,5.49-2.23,5.49Z"/><path class="cls-17" d="M119,247.31s-14.49,39.5-39.18,51.85c0,0,8.21,13.4,12.5,14.22,0,0,26.38-33.76,29.07-61.42Z"/><path class="cls-18" d="M19.67,484.91l-.72,6c-.76,2.85-4.43,10-9.13,9.55-2.9-.28-3.24-8.74-2.84-10,.73-2.31,2.08-5.78,4-7.82h6.64A2,2,0,0,1,19.67,484.91Z"/><path class="cls-19" d="M71.72,414.74l1.12,6.6s-3.75,38-4.42,53.26a11.91,11.91,0,0,0,1.76,6.78L76.71,492l-16.59-9.79-.33-2,2.71-3.73-3.56-42.62a13.09,13.09,0,0,1,1.49-7.24l3.44-6.45Z"/><path class="cls-20" d="M77.81,493.52h-5.3A3.2,3.2,0,0,1,70,492.28c-1.65-2.15-5.07-6.33-6.71-6.44-2.2-.15-1.92,7.68-1.92,7.68H60.12l-1.57-9.73a5.78,5.78,0,0,1,3-6h0s.51,3.72,3.24,5.37,11.11,7.54,11.11,7.54a7.77,7.77,0,0,1,2.15.06A1.4,1.4,0,0,1,77.81,493.52Z"/><path class="cls-21" d="M49,417.87s-22,41.74-25.5,51.27a90.87,90.87,0,0,0-4.77,18.23c-.08,1.18-1.54,2.31-5.57,2.31A3.88,3.88,0,0,1,9.55,488a2.34,2.34,0,0,1-.09-2.28c1.27-2.58,5.31-10.81,6.81-14.54,1.78-4.46,5.62-24.66,7.73-31.69s4.49-14.64,13.66-21.66C37.66,417.87,44,411.7,49,417.87Z"/><path class="cls-22" d="M62.89,349.48c3.22-13.65,0-23.94-3.43-30.28a10.25,10.25,0,0,1,4.29-14,79.11,79.11,0,0,1,16-6.07s15.77,11.53,13.9,20.55C92.59,325,82.6,351.4,82.6,351.4A22,22,0,0,1,62.89,349.48Z"/><path class="cls-23" d="M50.3,361.39c2.31-7,12.59-11.91,12.59-11.91A22,22,0,0,0,82.6,351.4s2.07,7.92.64,15.28-10.4,54.66-10.4,54.66C58.71,424.2,37,418.45,37,418.45,46,402.47,48,368.35,50.3,361.39Z"/><path class="cls-24" d="M69.48,283.26,64.86,304c-.44,1.83,1.22,1.53,3.07,1.18,3-.57,6.92-1.75,8.22-4.1a2.36,2.36,0,0,0,.24-.78l2-14.37a2.59,2.59,0,0,0-1.51-2.72L73,281.51A2.57,2.57,0,0,0,69.48,283.26Z"/><path class="cls-25" d="M127.15,269.57S115,311.76,66,307.8A5.68,5.68,0,0,0,59.9,313l-.13,1.69a7.55,7.55,0,0,0,7.9,8.14c16.29-.82,51.27-7.22,63.26-45.93Z"/><path class="cls-26" d="M130.93,276.9a77.64,77.64,0,0,0,2.92-11.16c.59-4.29-1.57-13.92-3.42-16.63s-2.17,3.93-3,7.05.58,7.57.58,7.57l-.86,5.84Z"/><path class="cls-27" d="M78.94,266.16s11.67,17,4.41,21.74-15.56-7.35-15.56-7.35-2.61-9.23.36-12.29S78.94,266.16,78.94,266.16Z"/><path class="cls-28" d="M74,262s5.08,1.3,5.75,3.62S72.47,270,70.25,270l-2,9.28s-5.14-8.86-3-13.88S74,262,74,262Z"/><path class="cls-29" d="M70.13,279.36s-4.56-5.49-6.48-2,4.08,6.24,6.21,4.55Z"/><path class="cls-30" d="M412.15,263.87c-.11.21-7.08,5.34-7.08,5.34s1.54,11,7.79,15.35c6.86,4.77,16.56-3.94,16.56-3.94s7.72,1.84,11.83-14.23c.94-3.69-4.5-4-11.06-3.32C421.73,263.94,412.15,263.87,412.15,263.87Z"/><path class="cls-31" d="M399.13,301.42a29.14,29.14,0,0,1,8.93-4.16c1.2-.33,7.68,1.56,11.68,1.46,5.5-.12,11.09-2.62,15.63-1.49s8.18,2.58,10.31,4.1c6.36,4.52,10.1,13,12.38,21.33a29.13,29.13,0,0,1-9.74,6.4l-1,40.65-24,12.3-27.44-13.78,1-39.72s-8.71-4.06-9.35-5.54S391.44,306.7,399.13,301.42Z"/><path class="cls-32" d="M387.87,322.8s-11.67,32.36,14.95,45.67c5.53-.74,3.41-9.92,3.41-9.92S394.66,356,398.13,329C394.93,326.36,387.87,322.8,387.87,322.8Z"/><path class="cls-33" d="M457.5,322.8s8,33.78-14.95,45.67c-5.53-.74-3.4-9.92-3.4-9.92s9.32-4.59,8.09-29.56C450.44,326.36,457.5,322.8,457.5,322.8Z"/><rect class="cls-34" x="395.52" y="335.14" width="52.72" height="35.6" rx="8.33"/><path class="cls-35" d="M471.36,381.3c-6-1.39-20-.64-20-.64l-.57,1.53-.93,7.64s13.27,2.39,19.82,2.38a6.29,6.29,0,0,0,1.84-.27c.2-.18.39-.37.58-.57C474.89,388.34,474.09,383.89,471.36,381.3Z"/><path class="cls-36" d="M447.38,380.23l2.36.1a4.51,4.51,0,0,1,3.31,1.71,5.53,5.53,0,0,1,1.22,3.83,4.39,4.39,0,0,1-1.28,2.91,3.56,3.56,0,0,1-2.76,1.05l-3.61-.26Z"/><path class="cls-37" d="M368,380.56c6.07-1.2,20,0,20,0l.53,1.55.75,7.66s-13.34,2-19.88,1.78a6.47,6.47,0,0,1-1.83-.33c-.19-.19-.38-.38-.56-.59C364.28,387.49,365.19,383.07,368,380.56Z"/><path class="cls-38" d="M392,380.23l-2.36,0a4.49,4.49,0,0,0-3.36,1.61,5.61,5.61,0,0,0-1.31,3.79,4.44,4.44,0,0,0,1.21,2.95,3.58,3.58,0,0,0,2.73,1.13l3.62-.14Z"/><path class="cls-39" d="M473.05,357.36c-2.74-6.29-9.43-7.31-15.13-4.37-.1.13-36.17,18.62-68,26.72a34.48,34.48,0,0,1,1.48,9.08c0,.68,0,1.35,0,2,24.4-1.25,50.87-9.39,73.62-16.54C472.06,372,476.08,364.34,473.05,357.36Z"/><path class="cls-40" d="M447.55,389.27a21,21,0,0,1,2.05-9.83c0-.14.09-.28.14-.41-1.82-.57-4.17-1.33-7.25-2.37a348.14,348.14,0,0,1-56.26-24.52c-6.39-3.49-13.65-1.15-15.7,6.41-1.83,6.74,2.18,12.51,8.27,14.53,18.2,6.06,8.72,4.38,14.67,6.29,16,4.94,35.84,9.43,54.12,10.66C447.57,389.78,447.56,389.52,447.55,389.27Z"/><path class="cls-41" d="M408.06,297.26a13.93,13.93,0,0,0,14.22,10.31c12-.22,13.09-10.34,13.09-10.34l-7.85-1.68-.66-8.75-11.8.88-.22,8.3Z"/><path class="cls-42" d="M416.72,262s-13.53,26.2,2.52,32.56c11.31,4.48,18.41-17.4,16.29-23.33-3.27-9.16-5.43-8.07-5.43-8.07Z"/><path class="cls-43" d="M438.79,259.65c6.68,1.83,1,16.33-9.09,12.9s-14-3.38-15.58-.62-1.91,12.58-5.31,7.73c-3.73-5.32-5.81-16-1.24-19.43,4.09-3.07,5-7.84,9.95-7.67,6.5.22,11.53-2.67,14.47-.59C435.36,254.36,433.87,258.3,438.79,259.65Z"/><path class="cls-44" d="M413.5,274.19s-2.89-3.11-3.35.64,1,8.55,2.76,5.91S413.5,274.19,413.5,274.19Z"/><path class="cls-45" d="M425,344.78a3.22,3.22,0,0,1-2.62,3.89,3.47,3.47,0,0,1-3.93-2.92c-.28-1.89.59-3.76,2.47-4A3.72,3.72,0,0,1,425,344.78Z"/><circle class="cls-14" cx="329.65" cy="280.98" r="52.7"/><path class="cls-46" d="M282.43,278.19l12-6.27v2.67a1.09,1.09,0,0,1-.15.56,1.27,1.27,0,0,1-.5.43l-5.51,2.82a4.43,4.43,0,0,1-.74.31,8,8,0,0,1-.82.24c.29.07.57.15.82.23a5.47,5.47,0,0,1,.74.31l5.51,2.84a1.22,1.22,0,0,1,.5.44,1,1,0,0,1,.15.55V286l-12-6.28Z"/><path class="cls-47" d="M299.93,289.18V266.62h3.75v8.67a8.21,8.21,0,0,1,2-1.4,5.9,5.9,0,0,1,2.57-.53,5.56,5.56,0,0,1,2.26.44,4.37,4.37,0,0,1,1.65,1.21,5.32,5.32,0,0,1,1,1.87,7.84,7.84,0,0,1,.34,2.39v9.91h-3.75v-9.91a3.33,3.33,0,0,0-.66-2.21,2.45,2.45,0,0,0-2-.78,3.82,3.82,0,0,0-1.82.44,6.37,6.37,0,0,0-1.61,1.2v11.26Z"/><path class="cls-48" d="M322.3,289.42a4.12,4.12,0,0,1-3.11-1.14,4.41,4.41,0,0,1-1.09-3.17v-8.7h-1.58a.74.74,0,0,1-.52-.19.76.76,0,0,1-.22-.6v-1.48l2.5-.41.79-4.25a.75.75,0,0,1,.28-.47.91.91,0,0,1,.56-.17h1.94v4.9H326v2.67h-4.1v8.44a1.66,1.66,0,0,0,.36,1.14,1.26,1.26,0,0,0,1,.41,2,2,0,0,0,.59-.08,4.14,4.14,0,0,0,.41-.18l.31-.17a.48.48,0,0,1,.27-.09.43.43,0,0,1,.28.09,1.14,1.14,0,0,1,.22.25l1.13,1.82a5.65,5.65,0,0,1-1.88,1A7.15,7.15,0,0,1,322.3,289.42Z"/><path class="cls-49" d="M328.94,289.18V273.61h2.29a.91.91,0,0,1,.95.68l.25,1.15a8.39,8.39,0,0,1,.86-.83,5.2,5.2,0,0,1,.95-.66,5.5,5.5,0,0,1,1.09-.43,5.18,5.18,0,0,1,1.29-.16,3.64,3.64,0,0,1,2.42.8,4.88,4.88,0,0,1,1.42,2.12,4.54,4.54,0,0,1,.91-1.33,4.72,4.72,0,0,1,1.2-.9,5,5,0,0,1,1.39-.52,6.72,6.72,0,0,1,1.48-.17,6.08,6.08,0,0,1,2.29.4,4.35,4.35,0,0,1,1.68,1.15,5.06,5.06,0,0,1,1,1.85,8,8,0,0,1,.36,2.51v9.91h-3.75v-9.91a3.36,3.36,0,0,0-.65-2.24,2.42,2.42,0,0,0-1.92-.75,2.6,2.6,0,0,0-1.93.76,2.69,2.69,0,0,0-.59.94,3.63,3.63,0,0,0-.21,1.29v9.91H338v-9.91a3.39,3.39,0,0,0-.63-2.28,2.33,2.33,0,0,0-1.86-.71,3,3,0,0,0-1.51.4,5,5,0,0,0-1.31,1.1v11.4Z"/><path class="cls-50" d="M358.49,266.62v22.56h-3.75V266.62Z"/><path class="cls-51" d="M364.2,286v-2.67a1,1,0,0,1,.15-.55,1.22,1.22,0,0,1,.5-.44l5.51-2.84a7.1,7.1,0,0,1,1.56-.54c-.29-.07-.57-.15-.83-.24a4.71,4.71,0,0,1-.73-.31l-5.51-2.82a1.27,1.27,0,0,1-.5-.43,1.09,1.09,0,0,1-.15-.56v-2.67l12,6.27v1.52Z"/><circle class="cls-14" cx="472.5" cy="186.83" r="40.74"/><path class="cls-52" d="M447.76,194.37,439,188.93V187l8.78-5.41v2.8L441.69,188l6.07,3.6Z"/><path class="cls-53" d="M463.06,181.45a2.56,2.56,0,0,0-2.3,1.71,11,11,0,0,0-.84,4.75q0,6.33,3.3,6.33a6.11,6.11,0,0,0,3-.92v3a6.07,6.07,0,0,1-3.42.88,5.37,5.37,0,0,1-4.73-2.45,15.05,15.05,0,0,1,0-13.8,5.41,5.41,0,0,1,4.73-2.48,6.75,6.75,0,0,1,1.92.27,7.5,7.5,0,0,1,2,1l-1.12,2.75a10.78,10.78,0,0,0-1.2-.7A3,3,0,0,0,463.06,181.45Z"/><path class="cls-54" d="M477.13,192a5.46,5.46,0,0,1-1.29,3.91,4.87,4.87,0,0,1-3.72,1.36,8.19,8.19,0,0,1-4.05-.93v-3.36a7,7,0,0,0,3.75,1.34,1.86,1.86,0,0,0,1.46-.54,2.07,2.07,0,0,0,.5-1.46,2.65,2.65,0,0,0-.59-1.66,8.81,8.81,0,0,0-1.93-1.68,9,9,0,0,1-1.78-1.55,5.64,5.64,0,0,1-.93-1.66,6.39,6.39,0,0,1-.33-2.15,5.15,5.15,0,0,1,1.3-3.71,4.57,4.57,0,0,1,3.5-1.37,7.66,7.66,0,0,1,4,1.17l-1.12,2.72a9.75,9.75,0,0,0-1.25-.63,3.64,3.64,0,0,0-1.4-.27A1.56,1.56,0,0,0,472,182a2.29,2.29,0,0,0-.44,1.48,2.55,2.55,0,0,0,.53,1.6,7.68,7.68,0,0,0,1.85,1.56,7.74,7.74,0,0,1,2.49,2.45A5.64,5.64,0,0,1,477.13,192Z"/><path class="cls-55" d="M487.68,192a5.46,5.46,0,0,1-1.29,3.91,4.88,4.88,0,0,1-3.73,1.36,8.25,8.25,0,0,1-4.05-.93v-3.36a7.06,7.06,0,0,0,3.76,1.34,1.89,1.89,0,0,0,1.46-.54,2.06,2.06,0,0,0,.49-1.46,2.64,2.64,0,0,0-.58-1.66,8.91,8.91,0,0,0-1.94-1.68,8.62,8.62,0,0,1-1.77-1.55,5.66,5.66,0,0,1-.94-1.66,6.39,6.39,0,0,1-.33-2.15,5.15,5.15,0,0,1,1.31-3.71,4.55,4.55,0,0,1,3.49-1.37,7.67,7.67,0,0,1,4,1.17l-1.12,2.72a9.26,9.26,0,0,0-1.26-.63,3.6,3.6,0,0,0-1.4-.27,1.52,1.52,0,0,0-1.26.54,2.24,2.24,0,0,0-.45,1.48,2.55,2.55,0,0,0,.53,1.6,7.89,7.89,0,0,0,1.85,1.56,7.74,7.74,0,0,1,2.49,2.45A5.65,5.65,0,0,1,487.68,192Z"/><path class="cls-56" d="M495.94,191.56l6.11-3.6-6.11-3.58v-2.8l8.79,5.41v1.94l-8.79,5.44Z"/><circle class="cls-14" cx="383.92" cy="197.33" r="29.7" transform="translate(103.66 525.63) rotate(-76.72)"/><path class="cls-57" d="M368.22,197.37l8.58-4.47v1.91a.77.77,0,0,1-.11.39.87.87,0,0,1-.36.31l-3.93,2a4.2,4.2,0,0,1-.53.22c-.18.06-.38.12-.59.17.21.05.41.1.59.16a4.23,4.23,0,0,1,.53.23l3.93,2a.87.87,0,0,1,.36.31.77.77,0,0,1,.11.4v1.9l-8.58-4.48Z"/><path class="cls-58" d="M381.64,205.25a1.57,1.57,0,0,1-.25.44,1.38,1.38,0,0,1-.34.3,1.33,1.33,0,0,1-.42.19,1.23,1.23,0,0,1-.42.07h-1.13l6.33-16.19a1.59,1.59,0,0,1,.53-.7,1.46,1.46,0,0,1,.84-.24h1.14Z"/><path class="cls-59" d="M390.15,202.94V201a.69.69,0,0,1,.11-.4.9.9,0,0,1,.35-.31l3.94-2a5.15,5.15,0,0,1,1.11-.39l-.59-.17a4.06,4.06,0,0,1-.52-.22l-3.94-2a.9.9,0,0,1-.35-.31.68.68,0,0,1-.11-.39V192.9l8.58,4.47v1.09Z"/><g class="cls-60"><path class="cls-61" d="M352.29,70.56a2.07,2.07,0,0,1-1.45-2.36c.42-2.31,1-4.64,1.57-6.92A2.07,2.07,0,0,1,355,59.83h0a2.07,2.07,0,0,1,1.42,2.54c-.59,2.16-1.09,4.37-1.49,6.56a2.08,2.08,0,0,1-2.42,1.67Zm5.23-17.33-.24-.09a2.07,2.07,0,0,1-1.09-2.72c.92-2.17,1.95-4.32,3.05-6.4A2.08,2.08,0,0,1,362.91,46c-1.05,2-2,4-2.9,6.08A2.08,2.08,0,0,1,357.52,53.23Zm8.91-15.76a2.1,2.1,0,0,1-.64-.31,2.08,2.08,0,0,1-.46-2.9c1.38-1.91,2.86-3.78,4.4-5.56a2.08,2.08,0,0,1,3.15,2.72c-1.47,1.69-2.87,3.47-4.19,5.28A2.07,2.07,0,0,1,366.43,37.47ZM378.64,24.1a2.08,2.08,0,0,1-.78-3.56c1.77-1.55,3.63-3,5.53-4.43a2.08,2.08,0,1,1,2.46,3.35c-1.8,1.33-3.57,2.74-5.26,4.21A2.06,2.06,0,0,1,378.64,24.1Zm14.89-10.31a2.07,2.07,0,0,1-.4-3.82c2.06-1.12,4.21-2.16,6.37-3.1a2.08,2.08,0,0,1,1.66,3.82c-2.06.89-4.1,1.88-6.06,2.94A2.06,2.06,0,0,1,393.53,13.79ZM410.32,7a2.08,2.08,0,0,1,0-4c2.26-.63,4.59-1.17,6.9-1.6A2.08,2.08,0,1,1,418,5.51c-2.2.42-4.4.93-6.56,1.53A2,2,0,0,1,410.32,7ZM484.8,23.71a2.12,2.12,0,0,1-.78-.42c-1.69-1.46-3.46-2.86-5.28-4.17a2.08,2.08,0,1,1,2.44-3.37c1.91,1.38,3.78,2.86,5.56,4.39a2.08,2.08,0,0,1-1.94,3.57ZM428.19,4.16a2.08,2.08,0,0,1,.48-4.07C431,0,433.41,0,435.76.06a2.08,2.08,0,1,1-.16,4.16c-2.24-.09-4.5-.08-6.73,0A2.15,2.15,0,0,1,428.19,4.16Zm41.65,9.35a2.14,2.14,0,0,1-.39-.16c-2-1-4-2-6.08-2.89A2.08,2.08,0,0,1,465,6.63c2.17.92,4.32,2,6.4,3a2.08,2.08,0,0,1-1.55,3.84Zm-23.6-8.15A2.09,2.09,0,0,1,444.79,3a2.06,2.06,0,0,1,2.41-1.67c2.31.41,4.64.94,6.91,1.55l.05,0a2.08,2.08,0,0,1-1.13,4c-2.16-.59-4.37-1.09-6.57-1.48Z"/><path class="cls-62" d="M494.94,34.2a2,2,0,0,1-1-.69c-.67-.83-1.38-1.67-2.08-2.48A2.07,2.07,0,1,1,495,28.3c.75.85,1.49,1.73,2.19,2.61a2.07,2.07,0,0,1-2.2,3.29Z"/></g><g class="cls-60"><path class="cls-63" d="M512.25,95.16a2.09,2.09,0,0,1-1.47-2.26c.13-1.06.25-2.15.34-3.22a2.08,2.08,0,0,1,4.14.35c-.1,1.13-.22,2.28-.36,3.4a2.08,2.08,0,0,1-2.32,1.8Z"/><path class="cls-64" d="M409.24,162.72c-.91-.27-1.83-.56-2.74-.86a2.08,2.08,0,1,1,1.3-4c2.11.7,4.25,1.31,6.37,1.82a2.08,2.08,0,1,1-1,4C411.88,163.46,410.55,163.1,409.24,162.72Zm-12.9-5a1.61,1.61,0,0,1-.33-.12c-2.09-1-4.15-2.14-6.14-3.33A2.07,2.07,0,1,1,392,150.7c1.89,1.12,3.85,2.18,5.83,3.15a2.08,2.08,0,0,1-1.49,3.86ZM424,165.59a2.08,2.08,0,0,1,.8-4.07c2.18.22,4.41.35,6.61.38a2.08,2.08,0,1,1-.06,4.16c-2.32,0-4.66-.17-7-.4A2.44,2.44,0,0,1,424,165.59Zm-42.7-17.42a1.94,1.94,0,0,1-.71-.37c-1.81-1.45-3.58-3-5.25-4.59a2.08,2.08,0,1,1,2.86-3c1.59,1.52,3.27,3,5,4.36a2.08,2.08,0,0,1-1.89,3.61Zm60.51,17.21a2.11,2.11,0,0,1-1.48-1.74,2.08,2.08,0,0,1,1.81-2.32c2.18-.27,4.38-.64,6.53-1.09a2.08,2.08,0,0,1,.85,4.07c-2.26.48-4.58.86-6.87,1.14A2.13,2.13,0,0,1,441.79,165.38Zm17.33-4.12a2.07,2.07,0,0,1-.12-3.95c2.08-.74,4.14-1.58,6.14-2.48a2.08,2.08,0,0,1,1.72,3.78c-2.1,1-4.28,1.84-6.46,2.62A2.08,2.08,0,0,1,459.12,161.26Zm16-7.79a2.08,2.08,0,0,1-.52-3.75c1.86-1.18,3.69-2.44,5.45-3.77a2.08,2.08,0,1,1,2.5,3.32c-1.85,1.4-3.78,2.73-5.74,4A2.07,2.07,0,0,1,475.14,153.47Zm13.94-11.1a2,2,0,0,1-.89-.53,2.07,2.07,0,0,1,0-2.94c1.56-1.55,3.07-3.19,4.49-4.86a2.08,2.08,0,1,1,3.17,2.69c-1.5,1.76-3.09,3.49-4.73,5.12A2.08,2.08,0,0,1,489.08,142.37Zm11.16-13.89a2.79,2.79,0,0,1-.53-.24,2.08,2.08,0,0,1-.64-2.87c1.18-1.86,2.29-3.79,3.31-5.74a2.08,2.08,0,1,1,3.69,1.93c-1.08,2-2.25,4.08-3.49,6A2.08,2.08,0,0,1,500.24,128.48Zm7.84-16-.13,0a2.09,2.09,0,0,1-1.25-2.66c.55-1.52,1.06-3.08,1.52-4.64.16-.56.32-1.12.47-1.68a2.08,2.08,0,0,1,2.55-1.47,2.06,2.06,0,0,1,1.47,2.55c-.16.59-.33,1.18-.5,1.77-.48,1.64-1,3.28-1.6,4.88A2.07,2.07,0,0,1,508.08,112.48Z"/><path class="cls-65" d="M368.67,135.51a2.06,2.06,0,0,1-1-.69c-.7-.88-1.4-1.8-2.07-2.71a2.08,2.08,0,1,1,3.36-2.46c.63.87,1.29,1.74,2,2.58a2.07,2.07,0,0,1-2.21,3.28Z"/></g><path class="cls-66" d="M378.14,113.17a1,1,0,0,0,1,.59l11.8-.79a51.4,51.4,0,0,0,11.87,11.72l-.64,11.8a1,1,0,0,0,.61.95l13.13,5.35a1,1,0,0,0,1.1-.26l7.77-8.9a51.6,51.6,0,0,0,16.69-.12l7.89,8.8a1,1,0,0,0,1.11.25l13.06-5.51a1,1,0,0,0,.59-1l-.79-11.8A51.4,51.4,0,0,0,475,112.42l11.8.64a1,1,0,0,0,1-.6l5.34-13.14a1,1,0,0,0-.26-1.1L484,90.45a51.89,51.89,0,0,0-.11-16.69l8.8-7.89a1,1,0,0,0,.24-1.1L487.37,51.7a1,1,0,0,0-1-.59l-11.8.79a51.4,51.4,0,0,0-11.87-11.72l.64-11.8a1,1,0,0,0-.6-.95l-13.14-5.34a1,1,0,0,0-1.1.26l-7.77,8.89a51.61,51.61,0,0,0-16.69.12l-7.89-8.8a1,1,0,0,0-1.1-.25L402,27.82a1,1,0,0,0-.59,1l.79,11.8A51.4,51.4,0,0,0,390.5,52.45l-11.8-.64a1,1,0,0,0-.95.6l-5.34,13.14a1,1,0,0,0,.26,1.1l8.89,7.77a51.6,51.6,0,0,0,.12,16.69L372.88,99a1,1,0,0,0-.25,1.1Z"/><path class="cls-67" d="M428.74,96.11a14.25,14.25,0,0,1,6-27.79,14.26,14.26,0,0,1,12.14,16.09,14.27,14.27,0,0,1-16.09,12.14A13.69,13.69,0,0,1,428.74,96.11ZM435.85,72a11.66,11.66,0,0,0-1.58-.34,10.9,10.9,0,1,0,1.58.34Z"/><path class="cls-67" d="M423.22,116a33.47,33.47,0,0,1-3.4-1.19h0l-1.05-.44a35.51,35.51,0,0,1-4.93-2.68l-.07,0-.18-.12-.35-.24a.85.85,0,0,1-.33-.92,1.34,1.34,0,0,1,.12-.24.83.83,0,0,1,1.15-.21A33.39,33.39,0,1,0,402.1,69.72a31.13,31.13,0,0,0-1.12,3.2,33.2,33.2,0,0,0-1,14.46.86.86,0,0,1,0,.36.83.83,0,0,1-1.62-.1,34.92,34.92,0,0,1,1-15.18c.33-1.14.73-2.26,1.17-3.37a35.05,35.05,0,0,1,66.13,23c-.34,1.15-.73,2.28-1.19,3.41A35.05,35.05,0,0,1,423.22,116Z"/><g class="cls-60"><path class="cls-68" d="M268.82,103.16a1.27,1.27,0,0,1-.92-1.23c0-1.09,0-2.19.1-3.28a1.28,1.28,0,1,1,2.56.15c-.06,1-.09,2.09-.09,3.13a1.29,1.29,0,0,1-1.28,1.29A1.15,1.15,0,0,1,268.82,103.16Z"/><path class="cls-69" d="M269.73,93.33a1.27,1.27,0,0,1-.9-1.46,54.29,54.29,0,0,1,1.31-5.5c.11-.38.23-.76.35-1.13a1.32,1.32,0,0,1,1.61-.84,1.28,1.28,0,0,1,.83,1.61l-.33,1.08c-.5,1.72-.92,3.48-1.25,5.24a1.28,1.28,0,0,1-1.49,1Zm4-12.71-.18-.06a1.28,1.28,0,0,1-.63-1.7,54.35,54.35,0,0,1,3.21-6,1.28,1.28,0,0,1,2.19,1.34,53.67,53.67,0,0,0-3.07,5.75A1.27,1.27,0,0,1,273.75,80.62Zm7-11.35a1.24,1.24,0,0,1-.44-.23,1.29,1.29,0,0,1-.2-1.81,55,55,0,0,1,4.6-5.05A1.28,1.28,0,0,1,286.48,64a52.71,52.71,0,0,0-4.39,4.82A1.28,1.28,0,0,1,280.73,69.27ZM290.29,60a1.21,1.21,0,0,1-.66-.46,1.28,1.28,0,0,1,.25-1.8A54.94,54.94,0,0,1,295.57,54a1.28,1.28,0,1,1,1.29,2.22,51.58,51.58,0,0,0-5.43,3.6A1.28,1.28,0,0,1,290.29,60Zm11.54-6.67a1.29,1.29,0,0,1-.14-2.42,58.44,58.44,0,0,1,6.43-2.28,1.29,1.29,0,1,1,.71,2.47,53.31,53.31,0,0,0-6.14,2.18A1.28,1.28,0,0,1,301.83,53.31Zm12.8-3.67a1.29,1.29,0,0,1-.9-1,1.27,1.27,0,0,1,1.06-1.46,53.74,53.74,0,0,1,6.8-.64,1.28,1.28,0,1,1,.09,2.56,54.18,54.18,0,0,0-6.49.61A1.32,1.32,0,0,1,314.63,49.64Zm13.31-.43a1.28,1.28,0,0,1,.49-2.51,55.66,55.66,0,0,1,6.75,1,1.28,1.28,0,1,1-.55,2.51,50.39,50.39,0,0,0-6.44-1Zm19.18,5.45-.22-.08a53.62,53.62,0,0,0-5.2-2.25l-.8-.29a1.28,1.28,0,1,1,.85-2.42l.85.31a55.92,55.92,0,0,1,5.45,2.35,1.28,1.28,0,0,1-.93,2.38Z"/></g><g class="cls-60"><path class="cls-70" d="M308.48,155.33a1.29,1.29,0,0,1,.71-2.47,51.69,51.69,0,0,0,6.26,1.35,1.28,1.28,0,1,1-.38,2.54,56.46,56.46,0,0,1-6.57-1.41Zm-6.21-2.14-.13-.05a56,56,0,0,1-6-2.93,1.29,1.29,0,1,1,1.26-2.24,52.77,52.77,0,0,0,5.76,2.8,1.28,1.28,0,0,1-.85,2.42Zm19.17,4.11a1.27,1.27,0,0,1-.92-1.26,1.29,1.29,0,0,1,1.32-1.25,52.74,52.74,0,0,0,6.41-.21,1.29,1.29,0,0,1,.23,2.56,55.66,55.66,0,0,1-6.71.22A1.61,1.61,0,0,1,321.44,157.3Zm-30.59-10.55a1.23,1.23,0,0,1-.4-.19,54.64,54.64,0,0,1-5.16-4.32,1.28,1.28,0,1,1,1.76-1.86,53.81,53.81,0,0,0,4.92,4.11,1.28,1.28,0,0,1-1.12,2.26Zm43.64,9.33a1.28,1.28,0,0,1,.09-2.48,54.68,54.68,0,0,0,6.16-1.74,1.28,1.28,0,0,1,1.64.78,1.29,1.29,0,0,1-.79,1.64,56,56,0,0,1-6.47,1.83A1.33,1.33,0,0,1,334.49,156.08Zm12.37-4.31a1.29,1.29,0,0,1-.2-2.39,53.7,53.7,0,0,0,5.58-3.16,1.28,1.28,0,0,1,1.4,2.15,58,58,0,0,1-5.85,3.32A1.26,1.26,0,0,1,346.86,151.77Zm11-7.16a1.31,1.31,0,0,1-.62-.4,1.28,1.28,0,0,1,.16-1.81A52.47,52.47,0,0,0,362,138a1.29,1.29,0,1,1,1.88,1.76,56.21,56.21,0,0,1-4.88,4.63A1.29,1.29,0,0,1,357.85,144.61Z"/><path class="cls-71" d="M281.28,137.7a1.31,1.31,0,0,1-.63-.41c-.7-.85-1.38-1.72-2-2.59a1.29,1.29,0,1,1,2.08-1.52c.6.83,1.25,1.66,1.92,2.47a1.29,1.29,0,0,1-.17,1.81A1.28,1.28,0,0,1,281.28,137.7Z"/></g><path class="cls-72" d="M287,122.09a.66.66,0,0,0,.64.4l7.89-.54a34.46,34.46,0,0,0,7.95,7.85l-.43,7.89a.65.65,0,0,0,.4.64l8.79,3.58a.66.66,0,0,0,.74-.18l5.2-5.95a34.58,34.58,0,0,0,11.17-.08l5.28,5.89a.66.66,0,0,0,.74.17l8.74-3.69a.66.66,0,0,0,.39-.65l-.53-7.89a34.41,34.41,0,0,0,7.85-7.94l7.89.43a.65.65,0,0,0,.64-.41l3.58-8.79a.65.65,0,0,0-.18-.73l-6-5.21a34.52,34.52,0,0,0-.08-11.16l5.89-5.28a.65.65,0,0,0,.16-.74L360.06,81a.65.65,0,0,0-.65-.4l-7.89.53a34.17,34.17,0,0,0-7.94-7.84l.42-7.9a.64.64,0,0,0-.4-.64l-8.79-3.57a.63.63,0,0,0-.73.17l-5.21,6a34.52,34.52,0,0,0-11.16.07l-5.29-5.89a.65.65,0,0,0-.73-.16L303,65a.64.64,0,0,0-.4.64l.53,7.89a34.46,34.46,0,0,0-7.85,7.95L287.34,81a.65.65,0,0,0-.64.4l-3.57,8.79a.64.64,0,0,0,.17.74l6,5.2a34.3,34.3,0,0,0,.07,11.17l-5.89,5.28a.66.66,0,0,0-.16.74Z"/><path class="cls-67" d="M320.76,110.84a9.73,9.73,0,1,1,8.6-1.57,9.6,9.6,0,0,1-7.19,1.87A11,11,0,0,1,320.76,110.84Zm4.77-16.17a7.26,7.26,0,0,0-1-.22,7.14,7.14,0,0,0-8.06,6.08,7.15,7.15,0,0,0,6.08,8.07h0a7.14,7.14,0,0,0,3-13.93Z"/><path class="cls-67" d="M316.9,124.64c-.78-.23-1.55-.5-2.32-.81a24.48,24.48,0,0,1-4.35-2.31l-.18-.12a1.26,1.26,0,0,1-.51-1.42,1.12,1.12,0,0,1,.17-.37,1.28,1.28,0,0,1,1.78-.33,22,22,0,0,0,4.06,2.17h0l.23.09a21.42,21.42,0,0,0,10.5,1.36,22.09,22.09,0,0,0,5.63-1.48l0,0,.13-.06a21.43,21.43,0,0,0,11.62-11.77c.28-.69.53-1.39.74-2.1a21.62,21.62,0,0,0-40.78-14.18c-.28.68-.52,1.37-.73,2.07a21.62,21.62,0,0,0-.61,9.36,1.49,1.49,0,0,1,0,.56,1.3,1.3,0,0,1-1,.91,1.28,1.28,0,0,1-1.46-1.08,24.22,24.22,0,0,1,.69-10.47,24.53,24.53,0,0,1,.81-2.32,24.18,24.18,0,0,1,45.62,15.87,23.41,23.41,0,0,1-.82,2.35A24.21,24.21,0,0,1,316.9,124.64Z"/></g></g></g></svg>