<?xml version="1.0" encoding="utf-8"?>
<!-- Generator: Adobe Illustrator 25.0.0, SVG Export Plug-In . SVG Version: 6.00 Build 0)  -->
<svg version="1.1" id="Capa_1" xmlns="http://www.w3.org/2000/svg" xmlns:xlink="http://www.w3.org/1999/xlink" x="0px" y="0px"
	 viewBox="0 0 508 508" style="enable-background:new 0 0 508 508;" xml:space="preserve">
<style type="text/css">
	.st0{fill:#89D6F7;}
	.st1{fill:#41596B;}
</style>
<rect y="0" class="st0" width="508" height="508"/>
<path class="st1" d="M402.4,438c-13-10.1-36.6-26.8-62.3-39.1c-25.7-12.2-40.8-41-36.7-69.9c0-0.4,0.1-0.8,0.2-1.3
	c0,0,58.5-41.1,50.4-81.2c0,0,1.8,0.1,4.5-0.1c25.8-2.5,27.4-42.3,1.9-46.6c-0.2,0-0.5-0.1-0.7-0.1l-0.8-4.4
	c7.8-28.3,26.8-114.2-30.7-105.9c0,0-41.3-70.9-128.6-36.7c-87.4,34-64.6,115.3-64.6,115.3l10.8,32.4c-23.5,6-21.3,43.7,3.7,46.1
	c2.7,0.2,4.6,0.1,4.6,0.1c-8.2,40.1,50.3,81.2,50.3,81.2c0.1,0.5,0.1,0.9,0.2,1.3c4,29-11.1,57.7-36.7,69.9
	c-25.8,12.3-49.3,29.2-62.3,39.1c-7.8,5.9-14.7,13.1-20,21.5c0,66.3,4.4,65.7,168.4,66c144,0.2,168.3,8.2,168.3-66.2
	C417.1,451,410.2,443.9,402.4,438z"/>
</svg>
